<?xml version="1.0" encoding="UTF-8"?>
<svg width="60px" height="48px" viewBox="0 0 60 48" version="1.1" xmlns="http://www.w3.org/2000/svg" xmlns:xlink="http://www.w3.org/1999/xlink">
    <!-- Generator: Sketch 51.3 (57544) - http://www.bohemiancoding.com/sketch -->
    <title>mavic2</title>
    <desc>Created with Sketch.</desc>
    <defs></defs>
    <g id="mavic2" stroke="none" stroke-width="1" fill="none" fill-rule="evenodd">
        <path d="M26.3341278,17.1064119 C26.334006,17.1036669 26.3339444,17.1009061 26.3339444,17.0981306 L26.3339444,16.5486705 C26.3339444,16.4514371 26.4091117,16.3716324 26.5062792,16.3652113 L47.9072906,15.0802801 C47.9403895,15.0319013 47.9959862,15 48.0586672,15 L49.5262627,15 C49.6270969,15 49.7086809,15.0825566 49.7086809,15.1834592 L49.7086809,16.6052676 L47.8753323,16.6052676 L46.8181318,16.6052676 L46.474379,17.2932394 L26.5174626,17.2932394 C26.4157118,17.2932394 26.3341278,17.2106828 26.3341278,17.1097803 L26.3341278,17.1064119 Z M41.6019426,16.3759437 L47.8753323,16.3759437 L47.8753323,15.99903 L41.6019426,16.3759437 Z M46.5005958,17.8655612 L46.5005958,17.7517039 L46.958933,16.8344081 L50.6256302,16.8344081 L51.0839674,17.7517039 L51.0839674,20.3825082 C50.9812998,20.3008689 50.8584655,20.2439965 50.7172976,20.2439965 L48.1680264,20.2439965 L48.1680264,19.5562081 L46.5635714,19.5562081 L46.4572371,19.5516217 L25.8494821,17.7427144 C25.8008983,17.7381279 25.7523146,17.7362933 25.7037309,17.7362933 C25.4406453,17.7362933 25.1775598,17.7995867 24.9438079,17.9179179 L23.7897149,18.4994834 C23.6210468,18.5847919 23.4294619,18.6306567 23.237877,18.6306567 L20.2834357,18.6306567 C19.9552663,18.6306567 19.6875974,18.8994244 19.6875974,19.2296508 L19.6875974,21.2651302 C19.6875974,21.5953567 19.9552663,21.8641243 20.2834357,21.8641243 L23.237877,21.8641243 C23.4294619,21.8641243 23.6210468,21.9099891 23.7897149,21.9962149 L25.005225,22.6089685 C25.2398937,22.7263824 25.5020625,22.7887585 25.7633147,22.7887585 L48.9313411,22.7887585 L48.2511688,31.0856988 L46.5003208,31.1444057 L46.5003208,32.5203494 C46.5003208,32.7221545 46.3362361,32.8872677 46.1345678,32.8872677 L42.4898707,32.8872677 C42.26153,32.8872677 42.0530374,32.7816216 41.9171326,32.6116319 L41.9171326,32.7038085 C41.9171326,32.8047111 41.8355486,32.8872677 41.7347145,32.8872677 L22.9480649,32.8872677 C22.9461336,32.8873287 22.944195,32.8873594 22.9422495,32.8873594 L21.4755706,32.8873594 C21.3738198,32.8873594 21.2922358,32.8048028 21.2922358,32.7039003 L21.2922358,31.6976268 L23.1255844,31.6976268 L23.1255844,31.9699719 L41.6879957,31.9699719 L41.5227794,31.3104363 L39.4620955,31.3783161 L39.2677606,31.7672496 C39.2063434,31.8910845 39.0789257,31.9699719 38.9405078,31.9699719 L36.643322,31.9699719 C36.5049042,31.9699719 36.3784032,31.8910845 36.3160693,31.7672496 L36.1767348,31.4893089 L24.1838849,31.6975351 L24.7293061,30.6050358 L24.7293061,27.0202439 L27.4087451,27.9779007 C27.5792465,28.0393595 27.757998,28.0723822 27.9385828,28.0769686 L46.5965716,28.5291955 L46.6057384,28.5291955 C47.7414978,28.4695712 48.6178385,27.4972377 48.5582547,26.3616255 C48.5032542,25.2672917 47.5984967,24.4114547 46.4957375,24.4114547 L27.7964983,24.8572604 C27.7139976,24.8572604 27.6324136,24.8545086 27.5508296,24.8490048 L24.5001375,24.6316057 L22.3505363,24.6316057 L22.0058667,23.940882 C21.9343661,23.801453 21.7931983,23.7143099 21.636447,23.7143099 L20.4887707,23.7143099 C20.3320194,23.7143099 20.1908516,23.801453 20.119351,23.9427166 L19.916766,24.3481613 L19.916766,23.9252879 C19.916766,23.5455275 19.6280136,23.2299777 19.2503438,23.1951205 L9.83334861,22.3383662 L8,18.2105352 C8,18.2105352 19.0147585,17.2932394 30.0001833,17.2932394 C36.4260653,17.2932394 42.529981,17.6054337 46.5005958,17.8655612 Z M19.9172243,29.2180846 L18.2213768,29.2180846 C18.0187918,29.2180846 17.8547071,29.0529713 17.8547071,28.8511663 L17.8547071,28.3007888 L15.0324503,28.3007888 C15.3587863,27.9357051 15.5632047,27.4587113 15.5632047,26.9321835 C15.5632047,26.3983174 15.354203,25.9149025 15.0205335,25.5489015 L17.8547071,25.5489015 L17.8547071,24.998524 C17.8547071,24.7958016 18.0187918,24.6316057 18.2213768,24.6316057 L19.7760565,24.6316057 L19.6880557,24.8068092 L19.6880557,26.8844841 L19.9172243,26.8838726 L19.9172243,26.881824 L20.684939,26.881824 L21.7505729,26.8789803 L21.7505729,26.881824 L24.5005958,26.881824 L24.5005958,30.5510071 L24.0422587,31.4683029 L20.3755615,31.4683029 L19.9172243,30.5510071 L19.9172243,29.2180846 Z M46.5003208,24.6405952 C47.4692456,24.6405952 48.2795857,25.393695 48.3300028,26.3733669 C48.3822532,27.3842269 47.6049134,28.2474022 46.5947383,28.2996881 L27.9440829,27.8474612 C27.7882482,27.843792 27.6333303,27.8153559 27.4866624,27.7621527 L24.5001375,26.6953377 L19.916766,26.6953377 L19.916766,24.8607462 L20.324686,24.0452702 C20.355853,23.9828941 20.4191035,23.9434504 20.4887707,23.9434504 L21.636447,23.9434504 C21.7061142,23.9434504 21.7693647,23.9828941 21.8005317,24.0452702 L22.2084517,24.8607462 L24.5001375,24.8607462 L27.5343295,25.0781453 C27.6507471,25.0854836 27.7671647,25.0882355 27.8835824,25.0854836 L46.5003208,24.6405952 Z M30.9606747,18.4219719 L31.3740948,22.5598932 L25.764048,22.5598932 C25.5357961,22.5598932 25.3112109,22.5057727 25.1077092,22.4039529 L23.8931158,21.7911993 C23.6896141,21.6884622 23.4650289,21.635259 23.2376936,21.635259 L20.2869191,21.635259 C20.0834174,21.635259 19.9174993,21.4683112 19.9174993,21.2655888 L19.9174993,19.2273576 C19.9174993,19.0246352 20.0806673,18.8604393 20.284169,18.8604393 L23.236777,18.8604393 C23.4650289,18.8604393 23.6896141,18.8072361 23.8931158,18.704499 L25.0462921,18.1229335 C25.2892107,18.0000158 25.5596297,17.94773 25.8300486,17.9715797 L30.9606747,18.4219719 Z M51.59483,21.4425352 C51.8432487,21.5672874 52,21.820461 52,22.099319 L52,23.9440008 C52,24.2210241 51.8432487,24.4760323 51.59483,24.5998673 L51.0109084,24.8924846 C50.8972408,24.9493569 50.8202402,25.0621843 50.8101568,25.1896884 L50.195985,32.5500698 C50.1794848,32.7408673 50.0209002,32.8876346 49.8302319,32.8876346 L48.7320561,32.8876346 C48.5175543,32.8876346 48.3488862,32.7032582 48.3672197,32.4904456 L49.1803098,22.5598014 L32.2905858,22.5598014 L31.8863324,18.5026022 L46.4367036,19.7803952 C46.4797873,19.7831471 47.8969658,19.7849817 47.9391328,19.7849817 L47.9391328,20.4729535 L50.7175726,20.4729535 C50.9201577,20.4729535 51.0833257,20.6389841 51.0833257,20.843541 L51.0833257,21.187527 L51.59483,21.4425352 Z M13.5005042,25.0974085 C14.5125126,25.0974085 15.3338528,25.9193055 15.3338528,26.932 C15.3338528,27.9446946 14.5125126,28.7665916 13.5005042,28.7665916 C12.4875791,28.7665916 11.6671556,27.9446946 11.6671556,26.932 C11.6671556,25.9193055 12.4875791,25.0974085 13.5005042,25.0974085 Z M14.7895316,28.5301128 L17.1673847,28.5301128 L17.1673847,29.4015437 C17.1673847,29.8069885 16.8382987,30.1353804 16.4331286,30.1353804 L10.5673297,30.1353804 C10.1621597,30.1353804 9.83399028,29.8069885 9.83399028,29.4015437 L9.83399028,24.4481465 C9.83399028,24.0427018 10.1621597,23.7143099 10.5673297,23.7143099 L16.4331286,23.7143099 C16.8382987,23.7143099 17.1673847,24.0427018 17.1673847,24.4481465 L17.1673847,25.3195775 L14.7721148,25.3195775 C14.4201118,25.0407196 13.9828582,24.868268 13.5006875,24.868268 C12.3630947,24.868268 11.4381703,25.7947367 11.4381703,26.9321835 C11.4381703,28.0696303 12.3630947,28.996099 13.5006875,28.996099 C13.9901916,28.996099 14.4347786,28.816309 14.7895316,28.5301128 Z" id="Shape" fill="#333333" fill-rule="nonzero"></path>
    </g>
</svg>