<?xml version="1.0" encoding="UTF-8"?>
<svg width="60px" height="48px" viewBox="0 0 60 48" version="1.1" xmlns="http://www.w3.org/2000/svg" xmlns:xlink="http://www.w3.org/1999/xlink">
    <!-- Generator: Sketch 51.3 (57544) - http://www.bohemiancoding.com/sketch -->
    <title>tello</title>
    <desc>Created with Sketch.</desc>
    <defs></defs>
    <g id="tello" stroke="none" stroke-width="1" fill="none" fill-rule="evenodd">
        <path d="M30,24.3388158 C29.448,24.3388158 29,24.8057895 29,25.3811678 C29,25.9565461 29.448,26.4235197 30,26.4235197 C30.552,26.4235197 31,25.9565461 31,25.3811678 C31,24.8057895 30.552,24.3388158 30,24.3388158 Z M30,26.9446957 C29.171,26.9446957 28.5,26.2442352 28.5,25.3811678 C28.5,24.517058 29.171,23.8176398 30,23.8176398 C30.828,23.8176398 31.5,24.517058 31.5,25.3811678 C31.5,26.2442352 30.828,26.9446957 30,26.9446957 Z M33.85,23.5570518 L26.15,23.5570518 C25.929,23.5570518 25.75,23.7436328 25.75,23.9739926 L25.75,27.3637212 C25.75,27.594081 25.929,27.780662 26.15,27.780662 L33.85,27.780662 C34.071,27.780662 34.25,27.594081 34.25,27.3637212 L34.25,23.9739926 C34.25,23.7436328 34.071,23.5570518 33.85,23.5570518 Z M43.5,26.7153783 L36.86,26.0232566 C36.656,26.0024095 36.5,25.823125 36.5,25.6084005 L36.5,24.0719737 C36.5,23.7769881 36.786,23.5747718 37.049,23.6842187 L43.5,26.3745292 L43.5,26.7153783 Z M34.5,27.4658717 L34.5,28.0527159 L25.5,28.0527159 L25.5,27.4658717 L25.5,23.7759457 L25.766,23.4684519 C25.916,23.2943791 26.119,23.196398 26.332,23.196398 L33.668,23.196398 C33.881,23.196398 34.084,23.2943791 34.234,23.4684519 L34.5,23.7759457 L34.5,27.4658717 Z M23.5,25.6084005 C23.5,25.823125 23.344,26.0024095 23.14,26.0232566 L16.5,26.7153783 L16.5,26.3745292 L22.951,23.6842187 C23.214,23.5747718 23.5,23.7769881 23.5,24.0719737 L23.5,25.6084005 Z M48.35,24.3388158 L48,24.3388158 L48,19.1270559 L45,19.1270559 L45,24.3388158 L44.65,24.3388158 C44.429,24.3388158 44.25,24.5253968 44.25,24.7557566 L44.25,25.0038363 L36.854,21.9195169 C36.825,21.8684416 36.804,21.8111123 36.766,21.7662911 L35.159,19.9046505 C35.052,19.7806106 34.925,19.6961801 34.778,19.6576131 C34.208,19.5075144 32.555,19.1406065 30,19.1406065 C27.445,19.1406065 25.792,19.5075144 25.222,19.6576131 C25.074,19.6961801 24.948,19.7806106 24.841,19.9046505 L23.234,21.7662911 C23.196,21.8111123 23.175,21.8684416 23.146,21.9195169 L15.75,25.0038363 L15.75,24.7557566 C15.75,24.5253968 15.571,24.3388158 15.35,24.3388158 L15,24.3388158 L15,19.1270559 L12,19.1270559 L12,24.3388158 L11.65,24.3388158 C11.429,24.3388158 11.25,24.5253968 11.25,24.7557566 L11.25,29.1336349 C11.25,29.3639947 11.429,29.5505757 11.65,29.5505757 L11.5,29.5505757 L11.75,32.6776316 L14.5,32.6776316 L15.25,29.5505757 L15.35,29.5505757 C15.571,29.5505757 15.75,29.3639947 15.75,29.1336349 L15.75,28.3643791 L23,27.6097163 L23,28.9491386 C23,29.30875 23.22,29.6266674 23.547,29.7402837 L25.877,30.5501912 C25.958,30.5783347 26.044,30.5929276 26.13,30.5929276 L33.87,30.5929276 C33.956,30.5929276 34.042,30.5783347 34.123,30.5501912 L36.453,29.7402837 C36.78,29.6266674 37,29.30875 37,28.9491386 L37,27.6097163 L44.25,28.3643791 L44.25,29.1336349 C44.25,29.3639947 44.429,29.5505757 44.65,29.5505757 L44.75,29.5505757 L45.5,32.6776316 L48.146,32.6776316 L48.396,29.5505757 L48.35,29.5505757 C48.571,29.5505757 48.75,29.3639947 48.75,29.1336349 L48.75,24.7557566 C48.75,24.5253968 48.571,24.3388158 48.35,24.3388158 Z M53.6,17.042352 L47.5,17.042352 L47.5,18.0847039 L53.6,18.0847039 C53.821,18.0847039 54,17.8981229 54,17.6677632 L54,17.4592928 C54,17.228933 53.821,17.042352 53.6,17.042352 Z M12.5,17.042352 L6.40000004,17.042352 C6.17899996,17.042352 6,17.228933 6,17.4592928 L6,17.6677632 C6,17.8981229 6.17899996,18.0847039 6.40000004,18.0847039 L12.5,18.0847039 L12.5,17.042352 Z M47.25,16.4169408 C47.25,16.186581 47.071,16 46.85,16 L46.15,16 C45.929,16 45.75,16.186581 45.75,16.4169408 L45.75,18.8664679 L47.25,18.8664679 L47.25,16.4169408 Z M39.4,18.0847039 L45.5,18.0847039 L45.5,17.042352 L39.4,17.042352 C39.179,17.042352 39,17.228933 39,17.4592928 L39,17.6677632 C39,17.8981229 39.179,18.0847039 39.4,18.0847039 Z M21,17.6677632 L21,17.4592928 C21,17.228933 20.821,17.042352 20.6,17.042352 L14.5,17.042352 L14.5,18.0847039 L20.6,18.0847039 C20.821,18.0847039 21,17.8981229 21,17.6677632 Z M14.25,16.4169408 C14.25,16.186581 14.071,16 13.85,16 L13.15,16 C12.929,16 12.75,16.186581 12.75,16.4169408 L12.75,18.8664679 L14.25,18.8664679 L14.25,16.4169408 Z" id="Mask" fill="#3B3E40" fill-rule="nonzero"></path>
    </g>
</svg>