<?xml version="1.0" encoding="UTF-8"?>
<svg width="60px" height="48px" viewBox="0 0 60 48" version="1.1" xmlns="http://www.w3.org/2000/svg" xmlns:xlink="http://www.w3.org/1999/xlink">
    <!-- Generator: Sketch 51.3 (57544) - http://www.bohemiancoding.com/sketch -->
    <title>service</title>
    <desc>Created with Sketch.</desc>
    <defs></defs>
    <g id="service" stroke="none" stroke-width="1" fill="none" fill-rule="evenodd">
        <path d="M16,12.8050691 L16,21.6929628 C16,30.4761973 21.9626206,37.2648124 30.0635048,39.46875 C38.1623794,37.2302648 44.125,30.4406334 44.125,21.6929628 L44.125,12.8050691 C35.4393087,7.73164362 24.6856913,7.73164362 16,12.8050691 M35.8234375,21.1710755 L29.8571875,27.2305481 C29.490625,27.601886 28.8971875,27.601886 28.5315625,27.2305481 L25.2165625,23.8637513 C24.8509375,23.4924134 24.8509375,22.8897034 25.2165625,22.5174134 C25.5821875,22.1451233 26.1765625,22.1451233 26.543125,22.5174134 L29.194375,25.2110413 L34.496875,19.8247375 C34.8634375,19.4524475 35.456875,19.4524475 35.8234375,19.8247375 C36.1890625,20.1960754 36.1890625,20.7987854 35.8234375,21.1710755" id="Mask" fill="#3B3E40" fill-rule="nonzero"></path>
    </g>
</svg>