<?xml version="1.0" encoding="UTF-8"?>
<svg width="70px" height="56px" viewBox="0 0 70 56" version="1.1" xmlns="http://www.w3.org/2000/svg" xmlns:xlink="http://www.w3.org/1999/xlink">
    <!-- Generator: Sketch 52.4 (67378) - http://www.bohemiancoding.com/sketch -->
    <title>ic-Tiny@1x</title>
    <desc>Created with Sketch.</desc>
    <g id="ic-Tiny" stroke="none" stroke-width="1" fill="none" fill-rule="evenodd">
        <g fill="#333333">
            <g transform="translate(29.166667, 8.166667)">
                <polygon id="Fill-1" points="1.16666667 25.66655 9.345 25.66655 9.345 23.3332167 1.16666667 23.3332167"></polygon>
                <path d="M8.47023333,5.59976667 C8.47023333,5.8891 8.23456667,6.12476667 7.94523333,6.12476667 L3.74523333,6.12476667 C3.4559,6.12476667 3.22023333,5.8891 3.22023333,5.59976667 L3.22023333,2.56643333 C3.22023333,2.2771 3.4559,2.04143333 3.74523333,2.04143333 L7.94523333,2.04143333 C8.23456667,2.04143333 8.47023333,2.2771 8.47023333,2.56643333 L8.47023333,5.59976667 Z M8.87856667,1.16643333 L2.8119,1.16643333 C2.55406667,1.16643333 2.34523333,1.37526667 2.34523333,1.63426667 L2.34523333,6.5331 C2.34523333,6.79093333 2.55406667,6.99976667 2.8119,6.99976667 L8.87856667,6.99976667 C9.1364,6.99976667 9.34523333,6.79093333 9.34523333,6.5331 L9.34523333,1.63426667 C9.34523333,1.37526667 9.1364,1.16643333 8.87856667,1.16643333 Z" id="Fill-2"></path>
                <path d="M7.8869,30.3333333 C7.24406667,30.3333333 6.72023333,29.8106667 6.72023333,29.1666667 C6.72023333,28.5226667 7.24406667,28 7.8869,28 C8.52973333,28 9.05356667,28.5226667 9.05356667,29.1666667 C9.05356667,29.8106667 8.52973333,30.3333333 7.8869,30.3333333" id="Fill-5"></path>
                <path d="M3.80356667,30.3333333 C3.16073333,30.3333333 2.6369,29.8106667 2.6369,29.1666667 C2.6369,28.5226667 3.16073333,28 3.80356667,28 C4.4464,28 4.97023333,28.5226667 4.97023333,29.1666667 C4.97023333,29.8106667 4.4464,30.3333333 3.80356667,30.3333333" id="Fill-7"></path>
                <polygon id="Fill-9" points="2.345 23.04155 9.345 23.04155 9.345 16.04155 2.345 16.04155"></polygon>
                <path d="M4.445,9.625 L7.245,9.625 C7.76066667,9.625 8.17833333,10.0426667 8.17833333,10.5583333 L8.17833333,12.25 L3.51166667,12.25 L3.51166667,10.5583333 C3.51166667,10.0426667 3.92933333,9.625 4.445,9.625" id="Fill-11"></path>
                <polygon id="Fill-12" points="4.67833333 9.33321667 7.01166667 9.33321667 7.01166667 7.29155 4.67833333 7.29155"></polygon>
                <path d="M5.84523333,4.95833333 C5.36106667,4.95833333 4.97023333,4.56633333 4.97023333,4.08333333 C4.97023333,3.60033333 5.36106667,3.20833333 5.84523333,3.20833333 C6.32823333,3.20833333 6.72023333,3.60033333 6.72023333,4.08333333 C6.72023333,4.56633333 6.32823333,4.95833333 5.84523333,4.95833333 M7.94523333,2.33333333 L3.74523333,2.33333333 C3.61573333,2.33333333 3.5119,2.43833333 3.5119,2.56666667 L3.5119,5.6 C3.5119,5.72833333 3.61573333,5.83333333 3.74523333,5.83333333 L7.94523333,5.83333333 C8.07356667,5.83333333 8.17856667,5.72833333 8.17856667,5.6 L8.17856667,2.56666667 C8.17856667,2.43833333 8.07356667,2.33333333 7.94523333,2.33333333" id="Fill-13"></path>
                <path d="M9.62208333,1.75 L10.26375,1.75 C10.39325,1.75 10.4970833,1.855 10.4970833,1.98333333 L10.4970833,6.18333333 C10.4970833,6.31166667 10.39325,6.41666667 10.26375,6.41666667 L9.62208333,6.41666667 L9.62208333,1.75 Z" id="Fill-14"></path>
                <path d="M1.41155,1.75 L2.05321667,1.75 L2.05321667,6.41666667 L1.41155,6.41666667 C1.28321667,6.41666667 1.17821667,6.31166667 1.17821667,6.18333333 L1.17821667,1.98333333 C1.17821667,1.855 1.28321667,1.75 1.41155,1.75" id="Fill-15"></path>
                <path d="M7.8869,30.625 C7.0819,30.625 6.42856667,29.9716667 6.42856667,29.1666667 C6.42856667,28.3616667 7.0819,27.7083333 7.8869,27.7083333 C8.6919,27.7083333 9.34523333,28.3616667 9.34523333,29.1666667 C9.34523333,29.9716667 8.6919,30.625 7.8869,30.625 M3.80356667,30.625 C2.99856667,30.625 2.34523333,29.9716667 2.34523333,29.1666667 C2.34523333,28.3616667 2.99856667,27.7083333 3.80356667,27.7083333 C4.60856667,27.7083333 5.2619,28.3616667 5.2619,29.1666667 C5.2619,29.9716667 4.60856667,30.625 3.80356667,30.625 M8.63356667,12.5416667 L3.03356667,12.5416667 C2.00223333,12.5416667 1.1669,13.377 1.1669,14.4083333 L1.1669,23.0416667 L1.47023333,23.0416667 L1.60673333,23.0416667 L2.05356667,23.0416667 L2.05356667,15.75 L9.6369,15.75 L9.6369,23.3333333 L9.6369,25.9583333 L7.0119,25.9583333 L1.60673333,25.9583333 L1.47023333,25.9583333 L1.1669,25.9583333 L1.1669,37.2166667 C1.1669,38.2468333 2.00223333,39.0833333 3.03356667,39.0833333 L8.63356667,39.0833333 C9.66373333,39.0833333 10.5002333,38.2468333 10.5002333,37.2166667 L10.5002333,14.4083333 C10.5002333,13.377 9.66373333,12.5416667 8.63356667,12.5416667" id="Fill-16"></path>
            </g>
        </g>
    </g>
</svg>