<?xml version="1.0" encoding="UTF-8"?>
<svg width="60px" height="48px" viewBox="0 0 60 48" version="1.1" xmlns="http://www.w3.org/2000/svg" xmlns:xlink="http://www.w3.org/1999/xlink">
    <!-- Generator: Sketch 51.3 (57544) - http://www.bohemiancoding.com/sketch -->
    <title>spark</title>
    <desc>Created with Sketch.</desc>
    <defs></defs>
    <g id="spark" stroke="none" stroke-width="1" fill="none" fill-rule="evenodd">
        <path d="M35.0981804,25.0364392 C35.0943312,25.1245102 35.0337016,25.1925649 34.9586366,25.1925649 L25.0144166,25.1925649 C24.9403141,25.1925649 24.8796846,25.1245102 24.8758353,25.0364392 L24.6814352,20.432751 C24.6785486,20.3717018 24.7045328,20.3306689 24.7199309,20.3106526 C24.7353289,20.2926388 24.7690116,20.2606128 24.8200176,20.2606128 L35.1539981,20.2606128 C35.2050041,20.2606128 35.238688,20.2926388 35.254086,20.3106526 C35.2694829,20.3306689 35.2945058,20.3717018 35.2925806,20.432751 L35.0981804,25.0364392 Z M50.7136752,22.0040096 L44.7594623,22.0040096 C44.5467775,22.0040096 44.3745124,22.1831532 44.3745124,22.404331 L44.3745124,22.5014077 L35.4735067,21.6197018 L35.52355,20.446762 C35.5331737,20.2115732 35.382081,20.0174173 35.1886434,19.9954007 C35.2001923,19.9573694 33.7912753,18.9815882 33.7912753,18.9815882 C33.7912753,18.9815882 33.1936405,18.5052065 30.0158793,18.5052065 C26.8371556,18.5052065 26.2404822,18.9815882 26.2404822,18.9815882 C26.2404822,18.9815882 24.907594,19.904327 24.8508137,19.9863927 L24.8200176,19.9863927 C24.6082953,19.9863927 24.4398794,20.1965609 24.4504657,20.446762 L24.4995464,21.6227045 L15.6254876,22.5014077 L15.6254876,22.404331 C15.6254876,22.1831532 15.4532225,22.0040096 15.2415003,22.0040096 L9.28632484,22.0040096 C9.0746026,22.0040096 8.90233749,22.1831532 8.90233749,22.404331 L8.90233749,25.605896 C8.90233749,25.8280739 9.0746026,26.0072175 9.28632484,26.0072175 L15.2415003,26.0072175 C15.4532225,26.0072175 15.6254876,25.8280739 15.6254876,25.605896 L15.6254876,25.5048153 L24.6256174,24.6060944 L24.6448647,25.0504501 C24.6535269,25.2656225 24.7940333,25.4317565 24.9711102,25.4567757 L25.4330504,30.2275992 C25.4542229,30.4367661 25.626488,30.597896 25.8333984,30.597896 L25.9729422,30.597896 L25.9729422,26.7488113 C25.9729422,26.380517 26.2664665,26.0812764 26.6263948,26.0812764 L33.3938151,26.0812764 C33.754706,26.0812764 34.0472676,26.380517 34.0472676,26.7488113 L34.0472676,30.597896 L34.1858488,30.597896 C34.3937219,30.597896 34.565987,30.4367661 34.5871594,30.2275992 L35.0500622,25.4457674 C35.2030801,25.3987292 35.3204888,25.2456073 35.3291511,25.0504501 L35.3474357,24.6030917 L44.3745124,25.5048153 L44.3745124,25.605896 C44.3745124,25.8280739 44.5467775,26.0072175 44.7594623,26.0072175 L50.7136752,26.0072175 C50.9253974,26.0072175 51.0976625,25.8280739 51.0976625,25.605896 L51.0976625,22.404331 C51.0976625,22.1831532 50.9253974,22.0040096 50.7136752,22.0040096 Z M45.2291009,26.7868426 C45.2945423,26.9229508 45.4273503,27.0080192 45.5726686,27.0080192 L49.8995063,27.0080192 C50.0448246,27.0080192 50.1785952,26.9229508 50.243074,26.7868426 L50.4971411,26.2574173 L44.9750338,26.2574173 L45.2291009,26.7868426 Z M44.8547372,19.6521246 L44.8547372,21.7538086 L50.6174377,21.7538086 L50.6174377,19.6521246 C50.6174377,19.4299467 50.4451726,19.2518044 50.2334503,19.2518044 L45.2396872,19.2518044 C45.0270023,19.2518044 44.8547372,19.4299467 44.8547372,19.6521246 Z M46.0076619,19.0016033 L49.4654744,19.0016033 C49.5713355,19.0016033 49.656988,18.9115321 49.656988,18.8014433 L49.656988,17.2001601 C49.656988,17.0900725 49.5713355,17 49.4654744,17 L46.0076619,17 C45.9018007,17 45.8151869,17.0900725 45.8151869,17.2001601 L45.8151869,18.8014433 C45.8151869,18.9115321 45.9018007,19.0016033 46.0076619,19.0016033 Z M55.5188126,17.5004008 L49.9322264,17.5004008 L49.9322264,18.5012025 L55.5188126,18.5012025 C55.7844286,18.5012025 56,18.2770233 56,18.0008017 C56,17.72358 55.7844286,17.5004008 55.5188126,17.5004008 Z M40.1208156,18.5012025 L45.5409099,18.5012025 L45.5409099,17.5004008 L40.1208156,17.5004008 C39.854237,17.5004008 39.6396282,17.72358 39.6396282,18.0008017 C39.6396282,18.2770233 39.854237,18.5012025 40.1208156,18.5012025 Z M9.75596344,26.7868426 C9.82140484,26.9229508 9.95517544,27.0080192 10.0995323,27.0080192 L14.4273314,27.0080192 C14.5726497,27.0080192 14.7064203,26.9229508 14.7708991,26.7868426 L15.0249662,26.2574173 L9.50285888,26.2574173 L9.75596344,26.7868426 Z M9.76654967,19.2518044 C9.55482744,19.2518044 9.38256233,19.4299467 9.38256233,19.6521246 L9.38256233,21.7538086 L15.1452628,21.7538086 L15.1452628,19.6521246 C15.1452628,19.4299467 14.9729977,19.2518044 14.7612754,19.2518044 L9.76654967,19.2518044 Z M10.535487,19.0016033 L13.9923381,19.0016033 C14.0991619,19.0016033 14.1848131,18.9115321 14.1848131,18.8014433 L14.1848131,17.2001601 C14.1848131,17.0900725 14.0991619,17 13.9923381,17 L10.535487,17 C10.4286645,17 10.343012,17.0900725 10.343012,17.2001601 L10.343012,18.8014433 C10.343012,18.9115321 10.4286645,19.0016033 10.535487,19.0016033 Z M10.0677736,17.5004008 L4.48118744,17.5004008 C4.21557144,17.5004008 4,17.72358 4,18.0008017 C4,18.2770233 4.21557144,18.5012025 4.48118744,18.5012025 L10.0677736,18.5012025 L10.0677736,17.5004008 Z M20.3603718,18.0008017 C20.3603718,17.72358 20.1448004,17.5004008 19.880147,17.5004008 L14.4600527,17.5004008 L14.4600527,18.5012025 L19.880147,18.5012025 C20.1448004,18.5012025 20.3603718,18.2770233 20.3603718,18.0008017 Z M25.1029556,24.919346 L34.8710601,24.919346 L35.056798,20.5348318 L24.9172177,20.5348318 L25.1029556,24.919346 Z M29.0535045,30.0104254 C28.5222737,30.0104254 28.0911296,29.5620657 28.0911296,29.0096225 C28.0911296,28.4561793 28.5222737,28.0088208 29.0535045,28.0088208 C29.5847353,28.0088208 30.0158793,28.4561793 30.0158793,29.0096225 C30.0158793,29.5620657 29.5847353,30.0104254 29.0535045,30.0104254 Z M30.9782542,27.50842 L29.0535045,27.50842 C28.2556951,27.50842 27.6099421,28.180959 27.6099421,29.0096225 C27.6099421,29.8382873 28.2556951,30.5108262 29.0535045,30.5108262 L30.9782542,30.5108262 C31.7750998,30.5108262 32.4218166,29.8382873 32.4218166,29.0096225 C32.4218166,28.180959 31.7750998,27.50842 30.9782542,27.50842 Z M29.0535045,28.5092217 C28.7869271,28.5092217 28.572317,28.7324008 28.572317,29.0096225 C28.572317,29.2858441 28.7869271,29.5100246 29.0535045,29.5100246 C29.3191193,29.5100246 29.5346919,29.2858441 29.5346919,29.0096225 C29.5346919,28.7324008 29.3191193,28.5092217 29.0535045,28.5092217 Z M30.9782542,30.761026 L29.0535045,30.761026 C28.1248123,30.761026 27.3693478,29.9753967 27.3693478,29.0096225 C27.3693478,28.0438495 28.1248123,27.2582202 29.0535045,27.2582202 L30.9782542,27.2582202 C31.9069452,27.2582202 32.6624097,28.0438495 32.6624097,29.0096225 C32.6624097,29.9753967 31.9069452,30.761026 30.9782542,30.761026 Z M33.4804289,27.0080192 L32.903004,27.0080192 L32.903004,26.9079385 C32.903004,26.6857607 32.7307389,26.5076183 32.518054,26.5076183 L27.5137047,26.5076183 C27.3010198,26.5076183 27.1287547,26.6857607 27.1287547,26.9079385 L27.1287547,27.0080192 L26.5513298,27.0080192 C26.3386449,27.0080192 26.1663798,27.1861615 26.1663798,27.4083406 L26.1663798,30.6099056 C26.1663798,30.8320834 26.3386449,31.0112271 26.5513298,31.0112271 L27.1287547,31.0112271 L27.1287547,31.1103064 C27.1287547,31.3324843 27.3010198,31.5116279 27.5137047,31.5116279 L32.518054,31.5116279 C32.7307389,31.5116279 32.903004,31.3324843 32.903004,31.1103064 L32.903004,31.0112271 L33.4804289,31.0112271 C33.6931138,31.0112271 33.8653789,30.8320834 33.8653789,30.6099056 L33.8653789,27.4083406 C33.8653789,27.1861615 33.6931138,27.0080192 33.4804289,27.0080192 Z" id="Mask" fill="#3B3E40" fill-rule="nonzero"></path>
    </g>
</svg>