<svg width="60" height="48" viewBox="0 0 60 48" xmlns="http://www.w3.org/2000/svg"><path d="M28.7055 16v-.9948c.303.152.64.245 1 .245.361 0 .697-.094 1-.245V16h1.0005v1.5h-4V16h.9995zm-.4953 25.7751502V41.2002c0-.111.09-.2.2-.2h2.601c.11 0 .199.089.199.2v.5747017L40.3697 46.8122c.091.05.056.188-.048.188h-1.508c-.067 0-.134-.017-.193-.05l-7.9161508-4.3534836L30.4709 46.8112c-.006.106-.094.189-.199.189h-1.122c-.107 0-.193-.083-.199-.189l-.2355699-4.2138665L20.8011 46.9502c-.059.033-.126.05-.193.05h-1.508c-.104 0-.139-.138-.048-.188l9.1581-5.0370498zM32.1059 24.2502h-.05c-.055 0-.1-.045-.1-.1v-2.3c0-.056.045-.1.1-.1h.05c.056 0 .1.044.1.1v2.3c0 .055-.044.1-.1.1zm-4.75 0h-.05c-.055 0-.1-.045-.1-.1v-2.3c0-.056.045-.1.1-.1h.05c.056 0 .1.044.1.1v2.3c0 .055-.044.1-.1.1zM27.706 20v-2.25h4V20h-4zm4.3501-3.9998h.55c.055 0 .099.044.099.1v.8c0 .055-.044.1-.099.1h-.55c-.056 0-.101-.045-.101-.1v-.8c0-.056.045-.1.101-.1zm-4.6006 9.5h4.5l-1.188 1.902c-.041.064-.062.138-.062.213l.005 13.135h-2v-13.135c0-.075-.021-.149-.061-.213l-1.194-1.902zm4.25-12.5c0 1.104-.896 2-2 2s-2-.896-2-2c0-1.105.896-2 2-2s2 .895 2 2zm-2 10.75c-.413 0-.75-.336-.75-.75s.337-.75.75-.75.75.336.75.75-.337.75-.75.75zm5.418-20.5h-.918v-2.05c0-.111.09-.2.2-.2h.601c.11 0 .199.089.199.2v1.949l-.082.101zm-.9678 3.75c-.11 0-.2-.09-.2-.2v-3.1c0-.111.09-.2.2-.2h.968c.053 0 .103-.021.14-.059l.133-.132c.038-.038.089-.059.142-.059h1.72c-.032.061-.053.127-.053.2v3.8h-1.667c-.053 0-.104-.021-.142-.059l-.133-.132c-.037-.038-.087-.059-.14-.059h-.968zm4.8506-3.6104c.073.239.199.805.199 1.86 0 1.056-.126 1.621-.199 1.861-.025.084-.104.139-.191.139h-.11v-3.8c0-.073-.021-.139-.052-.2h.162c.087 0 .166.056.191.14zm-4.1338 6.1104h-1.229l.363-.483c.13-.174.199-.384.199-.6v-1.168l.882-.014.118.119v1.495c0 .098-.029.194-.084.277l-.249.374zm-5.167 14.5c.553 0 1-.448 1-1 0-.553-.447-1-1-1-.552 0-1 .447-1 1 0 .552.448 1 1 1zm2.25-2.48c-.144.044-.25.172-.25.33v2.3c0 .158.106.286.25.329v.771h-4.5v-.771c.144-.043.25-.172.25-.329v-2.3c0-.149-.096-.275-.25-.325v-1.025c0-.138.112-.25.25-.25h4c.139 0 .25.112.25.25v1.02zm-8-10.7744v1.25h-1.8c-.11 0-.2-.09-.2-.2v-.85c0-.111.09-.2.2-.2h1.8zm3.5-.7456v1.75h-1.6c-.22 0-.4-.179-.4-.4v-1.2c0-.221.18-.4.4-.4h1.632c-.014.082-.032.164-.032.25zm10.8008-6.75c.11 0 .199.089.199.2v6.3c0 .314-.147.611-.399.8l-1.067.8c-.346.259-.767.4-1.2.4h-3.834v-1.75c0-.086-.017-.168-.032-.25h3.229c.199 0 .391-.059.555-.168l1.303-.869c.278-.185.445-.497.445-.832v-4.431c0-.111.09-.2.2-.2h.601zm-10.5556 8.75c-.151.303-.245.639-.245 1h-2.416c-.054 0-.105-.021-.143-.059l-.633-.637c-.037-.037-.058-.088-.058-.141v-2.718c0-.11.09-.199.2-.199h.419l-.042.063c-.051.075-.077.162-.077.252v.689h.5v1.1c0 .358.292.65.65.65h1.845zm2.415-4.1304c.058.036.09.1.09.167v.676c0 .068-.032.131-.09.168-.086.053-.228.119-.41.119-.182 0-.323-.066-.409-.119-.058-.037-.091-.1-.091-.168v-.676c0-.067.033-.131.091-.167.086-.054.227-.12.409-.12.182 0 .324.066.41.12zm-1.1602.1675v.317c-.667.187-1.188.613-1.396 1.146h-1.704c-.304 0-.55.216-.62.5h-.28v-.44c0-.039.012-.078.034-.111l.433-.649c.021-.033.033-.072.033-.111v-.59c0-.055.045-.099.101-.099h3.409c-.002.013-.01.024-.01.037zm1.5.5737c.732.223 1.25.76 1.25 1.389v1.992c-.371-.733-1.124-1.242-2-1.242-.875 0-1.628.508-2 1.24V10c0-.629.518-1.166 1.25-1.389v.102c0 .154.077.296.209.38.166.103.354.157.541.157.188 0 .376-.054.544-.159.129-.082.206-.223.206-.378v-.102z" fill="#333" fill-rule="evenodd"/></svg>