<svg width="56" height="56" viewBox="0 0 56 56" xmlns="http://www.w3.org/2000/svg"><g fill="#333" fill-rule="evenodd"><path d="M13.6379 38.7321c-1.453 0-2.631 1.178-2.631 2.63 0 1.453 1.178 2.631 2.631 2.631 1.452 0 2.63-1.178 2.63-2.631 0-1.452-1.178-2.63-2.63-2.63"/><path d="M20.4006 42.2888c-.202 0-.364-.063-.542-.096-.941-.099-.279 1.366-.067 1.874.193.464.072.993-.122 1.33-.143.249-.41.281-.638.149-.175-.101-.284-.236-.422-.353-.766-.557-.924 1.042-.995 1.589-.065.498-.434.896-.771 1.09-.248.145-.495.039-.627-.189-.1-.175-.128-.348-.188-.517-.385-.865-1.322.44-1.656.878-.305.399-.825.559-1.213.56-.287 0-.448-.214-.448-.479 0-.201.063-.363.095-.541.1-.941-1.365-.279-1.874-.067-.463.192-.993.072-1.33-.122-.248-.144-.28-.41-.148-.638.1-.175.236-.284.353-.422.557-.765-1.043-.924-1.59-.995-.497-.065-.895-.434-1.09-.77-.144-.249-.039-.496.19-.628.175-.101.347-.127.517-.188.865-.384-.441-1.322-.878-1.657-.4-.305-.56-.824-.56-1.212-.001-.287.214-.448.478-.448.202 0 .364.063.542.095.941.099.279-1.365.067-1.874-.192-.463-.072-.993.122-1.329.143-.249.409-.282.638-.149.175.1.284.236.422.353.765.556.924-1.043.995-1.589.064-.498.433-.896.77-1.091.248-.144.495-.039.627.19.101.175.128.347.189.517.384.865 1.322-.441 1.656-.879.305-.399.824-.559 1.213-.559.287-.001.448.214.448.478 0 .202-.063.364-.096.542-.099.941 1.366.279 1.874.067.464-.193.994-.072 1.33.122.25.143.282.409.149.638-.101.174-.236.284-.354.422-.556.765 1.043.924 1.59.995.497.064.896.434 1.091.77.144.249.038.495-.19.627-.175.101-.347.128-.517.189-.865.384.44 1.321.879 1.656.398.305.559.824.559 1.212.001.288-.214.449-.478.449m.706-1.885c-.103-.591-.223-1.033-.328-1.365.113-.144.152-.299.018-.543-.134-.243-.445-.834-1.17-1.699-.385-.459-.709-.783-.966-1.018.025-.18-.018-.335-.257-.479-.237-.143-.802-.5-1.862-.886-.564-.205-1.006-.323-1.346-.398-.068-.169-.183-.281-.462-.287-.277-.005-.944-.032-2.056.164-.59.104-1.033.224-1.365.328-.142-.112-.299-.152-.542-.017-.243.134-.834.444-1.698 1.169-.46.386-.783.71-1.019.967-.18-.026-.335.018-.478.257-.144.237-.5.801-.887 1.862-.205.563-.323 1.006-.398 1.346-.169.068-.282.183-.286.462-.005.277-.033.944.164 2.055.103.591.222 1.033.328 1.365-.113.144-.153.299-.018.543.134.243.444.834 1.17 1.698.385.46.709.783.966 1.018-.026.181.018.335.257.479.237.143.801.5 1.862.886.563.205 1.006.324 1.346.398.068.17.182.282.462.287.277.005.944.032 2.055-.164.59-.104 1.033-.223 1.366-.328.142.113.298.152.542.017.243-.133.833-.444 1.698-1.169.46-.386.783-.71 1.018-.967.181.026.335-.017.479-.256.143-.238.5-.802.887-1.862.205-.564.323-1.006.398-1.347.169-.068.281-.182.286-.461.005-.277.032-.944-.164-2.055m13.3448-29.3846c-.289-.344-.803-.389-1.146-.101-.343.289-.712 1.161-.712 1.161l.246.293.246.293s.922-.212 1.265-.5c.344-.289.389-.803.101-1.146m-8.0771 15.981v1.315l.655-1.315zm-1.6182-5.709c.57 1.399 1.94 2.391 3.542 2.391 1.602 0 2.972-.992 3.541-2.391h-7.083zm0-2.8696h7.083c-.568-1.4-1.939-2.392-3.541-2.392-1.602 0-2.973.992-3.542 2.392M9.4143 20.7829h-1.53l-.423.422c-.035.036-.056.085-.056.136v1.275c0 .051.021.1.056.136l.423.422v.732c0 .078.047.148.12.177l.119.048.071.179c.015.036.05.06.089.06h1.131s-.096-.628-.096-1.794.096-1.793.096-1.793"/><path d="M13.6379 38.4929c-1.583 0-2.87 1.288-2.87 2.87s1.287 2.869 2.87 2.869c1.582 0 2.869-1.287 2.869-2.869 0-1.582-1.287-2.87-2.869-2.87zm-.479 9.872c-.181 0-.208-.15-.208-.24 0-.108.025-.209.05-.316.015-.06.03-.12.041-.183.028-.249-.022-.434-.142-.569-.122-.135-.306-.204-.545-.204-.462 0-1.071.256-1.434.409-.207.086-.346.113-.497.113-.239 0-.494-.069-.702-.188-.054-.03-.087-.069-.099-.116-.015-.057-.002-.125.038-.195.054-.093.126-.169.203-.249.043-.045.086-.09.126-.137.217-.299.189-.527.127-.668-.204-.473-1.027-.614-1.783-.708-.513-.067-.845-.398-.999-.664-.032-.054-.041-.104-.029-.151.016-.056.061-.11.131-.149.094-.054.194-.084.3-.115.06-.017.119-.035.178-.056.338-.15.427-.362.445-.514.058-.513-.584-1.046-1.191-1.506-.411-.314-.533-.766-.533-1.074 0-.062.017-.111.051-.145.041-.041.108-.064.187-.064.109 0 .21.025.318.051.059.015.203.044.203.044l.108.005c.297 0 .452-.139.53-.257.279-.42-.006-1.189-.296-1.876-.199-.476-.078-.928.076-1.195.04-.072.094-.106.163-.106.047 0 .098.015.148.044.093.054.168.127.248.203.045.043.09.086.138.126.162.118.309.173.45.173.697 0 .847-1.19.927-1.829.066-.512.397-.844.664-.999.038-.023.075-.034.109-.034.102 0 .167.095.191.136.055.094.082.19.114.3.018.06.035.119.056.178.166.374.406.448.58.448.493 0 1.001-.615 1.439-1.192.315-.413.768-.535 1.076-.535.067 0 .117.019.152.059.036.041.057.105.057.18 0 .108-.026.209-.051.316-.016.061-.031.121-.041.182-.028.249.021.435.142.569.122.137.306.205.545.205.463 0 1.072-.256 1.437-.41.203-.085.344-.112.494-.112.239 0 .495.069.701.187.055.032.088.071.1.117.015.056.002.126-.038.195-.054.095-.126.17-.204.249-.042.045-.084.09-.125.137-.217.3-.189.528-.127.668.204.473 1.027.614 1.782.709.514.066.846.397 1.001.664.033.058.042.111.024.161-.017.053-.062.102-.127.139-.094.054-.194.084-.3.114-.06.017-.119.035-.178.056-.338.15-.427.362-.445.515-.058.512.585 1.046 1.193 1.507.409.312.531.765.531 1.073 0 .062-.017.11-.05.144-.042.042-.108.064-.189.064-.108 0-.208-.024-.316-.051-.06-.014-.204-.044-.204-.044l-.108-.004c-.297 0-.451.139-.53.255-.279.42.006 1.187.294 1.874.201.479.08.932-.074 1.199-.041.07-.094.105-.164.105-.046 0-.098-.015-.147-.044-.094-.054-.169-.126-.249-.203-.045-.042-.089-.085-.137-.125-.162-.119-.309-.173-.45-.173-.698 0-.847 1.191-.927 1.83-.066.512-.397.844-.663.998-.039.022-.075.034-.11.034-.072 0-.141-.051-.191-.137-.054-.093-.083-.193-.113-.299-.018-.06-.035-.12-.057-.179-.165-.373-.406-.448-.581-.448-.493 0-1.001.616-1.439 1.193-.314.412-.766.534-1.075.535zm13.4722-7.9531c-.819 0-1.485-.673-1.485-1.5s.666-1.5 1.485-1.5h3.528c.82 0 1.487.673 1.487 1.5s-.667 1.5-1.487 1.5h-3.528zm16.5313-1.6797c-1.452 0-2.63 1.178-2.63 2.63 0 1.453 1.178 2.631 2.63 2.631 1.453 0 2.631-1.178 2.631-2.631 0-1.452-1.178-2.63-2.631-2.63"/><path d="M43.1624 38.4929c-1.582 0-2.869 1.288-2.869 2.87s1.287 2.869 2.869 2.869c1.582 0 2.87-1.287 2.87-2.869 0-1.582-1.288-2.87-2.87-2.87m.479 9.872c-.308-.001-.761-.123-1.023-.466-.49-.646-.999-1.262-1.492-1.262-.174 0-.415.075-.573.432-.029.075-.046.135-.063.195-.031.105-.06.206-.114.299-.05.087-.12.137-.191.137-.035 0-.071-.012-.11-.034-.266-.154-.597-.486-.652-.915-.091-.722-.24-1.913-.938-1.913-.141 0-.288.054-.435.161-.063.052-.107.095-.152.137-.08.077-.155.149-.249.203-.05.029-.101.044-.147.044-.07 0-.123-.035-.164-.106-.155-.266-.275-.719-.109-1.117.323-.768.607-1.535.328-1.955-.077-.116-.232-.255-.529-.255l-.112.005c-.079.014-.14.029-.2.043-.108.027-.209.051-.317.051-.089 0-.239-.027-.239-.208.001-.308.123-.761.466-1.023.674-.511 1.317-1.045 1.259-1.557-.018-.153-.107-.365-.428-.508-.076-.028-.136-.046-.195-.063-.106-.03-.206-.06-.3-.114-.07-.04-.115-.093-.131-.149-.013-.047-.003-.098.028-.151.155-.267.487-.598.914-.653.841-.106 1.664-.247 1.869-.72.062-.14.09-.368-.117-.654-.051-.062-.093-.106-.136-.151-.077-.08-.149-.155-.204-.249-.037-.064-.05-.13-.04-.184.01-.052.044-.094.102-.127.207-.119.463-.188.702-.188.15 0 .29.027.416.08.443.186 1.052.442 1.514.442.24 0 .423-.069.545-.205.121-.134.17-.32.145-.551-.013-.079-.027-.139-.043-.2-.026-.107-.051-.208-.051-.316 0-.089.028-.239.208-.239.308 0 .761.122 1.024.465.491.647.999 1.263 1.491 1.262.174 0 .415-.074.574-.431.028-.076.045-.135.063-.195.032-.11.059-.206.113-.299.025-.042.09-.137.192-.137.034 0 .071.011.109.034.267.155.598.487.653.914.091.725.24 1.914.937 1.914.142 0 .289-.055.436-.162.063-.051.108-.094.153-.137.079-.076.154-.149.248-.203.05-.029.101-.044.148-.044.068 0 .122.034.163.106.154.267.274.72.109 1.118-.323.764-.608 1.533-.33 1.954.079.117.233.256.53.256l.112-.006c.08-.014.14-.028.2-.043.108-.026.209-.051.317-.051.08 0 .147.023.188.064.034.034.051.083.051.145 0 .308-.122.76-.466 1.023-.675.511-1.317 1.045-1.258 1.557.018.152.107.364.428.507.076.028.135.046.195.063.106.031.205.061.299.114.07.04.116.093.131.15.013.047.003.097-.028.151-.155.266-.487.597-.914.652-.841.106-1.664.247-1.869.72-.061.141-.09.369.117.653.051.062.093.107.136.152.077.08.15.156.204.249.04.07.053.138.038.195-.012.047-.046.086-.1.116-.207.119-.463.188-.701.188-.151 0-.29-.027-.417-.08-.443-.186-1.052-.442-1.514-.442-.239 0-.423.069-.545.204-.121.135-.17.32-.144.552.012.08.028.14.043.2.025.107.05.208.05.316 0 .09-.027.24-.208.24M25.3489 30.3478h-.648l-.24.239v1.542z"/><path d="M49.8518 42.1061c-.424.321-1.211.917-1.163 1.33.015.128.109.232.281.308.054.019.109.035.163.051.116.034.237.069.355.138.128.072.216.18.248.303.02.077.028.201-.056.342-.182.313-.579.705-1.097.772-.527.067-1.506.19-1.671.571-.051.118-.021.255.089.407.038.044.076.084.115.125.08.083.17.176.24.299.073.127.096.264.062.385-.018.074-.073.186-.217.268-.244.139-.544.22-.825.22-.181 0-.354-.033-.512-.099-.426-.179-1.006-.423-1.418-.423-.165 0-.286.041-.36.122-.072.08-.098.197-.082.357.011.056.024.11.037.165.032.131.059.246.059.378 0 .293-.184.489-.458.489-.366 0-.905-.148-1.222-.563-.331-.436-.883-1.165-1.293-1.165-.054 0-.219 0-.345.283-.019.053-.035.107-.05.161-.036.121-.07.239-.139.358-.095.166-.244.261-.407.261-.079 0-.157-.022-.235-.067-.316-.183-.708-.581-.776-1.099-.069-.552-.213-1.696-.689-1.696-.088 0-.185.039-.288.114-.039.033-.076.069-.114.104-.1.096-.19.181-.309.25-.088.051-.182.078-.273.078-.16 0-.295-.082-.38-.232-.182-.316-.324-.856-.123-1.338.216-.516.579-1.377.351-1.719-.063-.096-.172-.145-.321-.145l-.1.006c-.043.009-.098.023-.154.036-.11.027-.236.058-.375.058-.293 0-.489-.184-.489-.459.001-.383.15-.904.563-1.221.424-.321 1.21-.916 1.163-1.33-.015-.128-.109-.232-.281-.308-.053-.018-.107-.035-.162-.05-.117-.035-.237-.07-.356-.138-.128-.076-.215-.182-.248-.3-.02-.082-.026-.202.052-.341.184-.317.582-.711 1.101-.777.527-.067 1.506-.19 1.671-.571.051-.118.021-.255-.09-.408-.036-.042-.076-.084-.116-.125-.084-.088-.169-.177-.238-.296-.067-.12-.092-.247-.069-.359.015-.084.067-.206.222-.295.244-.14.545-.221.827-.221.184 0 .357.033.513.099.432.181 1.009.423 1.417.423.167 0 .285-.04.36-.123.071-.079.098-.196.081-.357-.009-.057-.023-.11-.036-.163-.032-.132-.059-.247-.059-.379 0-.293.184-.49.458-.49.366.001.905.149 1.223.565.33.435.883 1.163 1.291 1.163.054 0 .22 0 .346-.284.019-.053.036-.108.051-.163.035-.119.07-.237.139-.355.093-.164.241-.26.406-.26.08 0 .159.023.236.068.33.192.707.581.775 1.098.069.551.213 1.695.689 1.695.088 0 .185-.038.288-.114.046-.037.086-.076.127-.115.091-.087.179-.17.295-.238.092-.052.184-.078.275-.078.162 0 .297.083.381.234.18.312.322.851.121 1.336-.203.481-.579 1.375-.351 1.72.064.096.169.143.32.143l.101-.005c.042-.009.098-.023.152-.036.117-.029.239-.059.377-.059.147 0 .276.049.364.138.057.056.124.158.124.321 0 .365-.147.904-.562 1.222m.944-1.84c-.006-.279-.118-.394-.287-.461-.075-.341-.193-.783-.398-1.346-.386-1.061-.742-1.625-.886-1.863-.144-.239-.298-.282-.478-.256-.236-.257-.559-.581-1.019-.967-.864-.725-1.455-1.035-1.698-1.169-.244-.135-.4-.096-.543.017-.332-.105-.775-.224-1.365-.328-1.111-.196-1.778-.169-2.055-.164-.279.005-.394.118-.462.287-.34.075-.782.193-1.346.398-1.06.386-1.625.743-1.862.886-.239.144-.282.299-.257.479-.257.235-.581.558-.967 1.018-.724.864-1.035 1.455-1.169 1.698-.134.244-.095.4.017.543-.105.332-.224.775-.327 1.365-.197 1.111-.17 1.778-.164 2.056.005.278.117.393.286.461.075.34.193.783.398 1.347.386 1.06.743 1.624.886 1.861.145.239.299.283.48.257.234.257.558.581 1.017.967.864.725 1.456 1.035 1.698 1.169.244.135.401.095.543-.017.332.105.775.224 1.366.328 1.111.196 1.778.169 2.055.164.279-.006.394-.118.461-.287.341-.075.783-.193 1.347-.398 1.06-.386 1.624-.743 1.862-.886.238-.144.282-.299.256-.479.257-.235.581-.559.967-1.018.725-.864 1.036-1.456 1.17-1.698.134-.245.094-.4-.018-.543.106-.332.224-.775.328-1.366.197-1.111.169-1.777.164-2.055"/><path d="M46.4622 33.9352h-.429c.039.016.077.027.117.05.321.176.902.494 1.739 1.197.359.301.675.597.961.901.244.006.437.132.589.384.189.311.532.877.907 1.906.03.084.044.156.071.237v-.835l-.463-2.236-1.405-1.948-.702-.413-.318-.077c.106.084.166.207.166.339v.495h-1.233zM18.3948 21.0217h-1.307c-.078 0-.156-.009-.231-.028l-.729-.182c-.075-.019-.153-.029-.231-.029h-6.23l-.005.038c-.001.006-.093.627-.093 1.756s.092 1.75.093 1.756l.005.037h6.122c.148 0 .294-.035.427-.101l.553-.276c.133-.067.279-.101.428-.101h1.198v-2.87zm4.4121 2.4042c-.134-.153-.327-.241-.531-.241h-1.814c-.348 0-.633-.283-.633-.633v-3.204h-.639c-.043 0-.085.015-.119.042l-.355.283c-.045.037-.071.091-.071.149v6.464c0 .058.026.114.071.15l.355.283c.034.027.076.042.119.042h6.536l-2.919-3.335zM6.4534 38.3732c.375-1.028.719-1.595.884-1.867.176-.29.369-.417.613-.423.286-.304.602-.6.961-.901.837-.703 1.418-1.021 1.697-1.174.183-.102.314-.14.442-.14.105 0 .205.026.301.079.4-.12.821-.219 1.284-.3.655-.116 1.245-.172 1.801-.172l.255.003c.332.006.545.111.674.32.404.095.818.22 1.262.381.092.034.161.065.246.098l.12-.267 1.034-.793 2.593-.717v-.478l-10.304.88c-.293.025-.581.084-.86.175l-2.554.833c-.388.126-.654.485-.66.894l-.049 4.425c.01-.036.025-.074.034-.109.072-.246.13-.484.226-.747m29.164-25.0141c.052-.014.088-.062.07-.115l-.526-1.573-.377.316c-.064.14-.152.268-.273.369-.379.318-1.27.529-1.371.552l-.148.034-.689-.82.059-.141c.04-.094.396-.916.77-1.242h-9.908c-.128 0-.248.064-.318.171l-1.082 1.622c-.052.077-.073.171-.061.263l.076.564h13.778z"/><path d="M27.4163 24.2917l.069-.191c-1.998-.382-3.513-2.138-3.513-4.245 0-.428.082-.834.198-1.225h-4.091v3.922c0 .211.172.382.383.382h1.813c.277 0 .538.119.72.327l2.948 3.369c.073.083.178.13.288.13h.917l.878-1.76c.079-.16.02-.353-.135-.441l-.475-.268zm-9.7286-9.0157v2.015l.191.192v.287l.288.287h1.243l.191-.287v-2.367z"/><path d="M38.677 15.5617l-.391-1.658c-.041-.173-.195-.295-.372-.295H17.696c-.202 0-.369.156-.382.356l-.045.649c-.014.211.145.393.356.407l3.208.214c.402.027.714.361.714.764v1.006c0 .422.343.765.766.765h2.193l.025.003c.738-1.33 2.14-2.243 3.767-2.243 1.269 0 2.399.558 3.191 1.43l.129-.16 3.714 2.1 3.09-2.574c.223-.186.321-.482.255-.764m-14.4551 4.2944c0 .419.082.815.199 1.196h7.754c.117-.381.199-.777.199-1.196 0-.419-.082-.815-.199-1.196h-7.754c-.117.381-.199.777-.199 1.196"/><path d="M22.3127 18.0197c-.56 0-1.016-.456-1.016-1.015v-1.006c0-.271-.211-.496-.48-.514l-.977-.065v2.637l.267.335h4.138c.046-.127.095-.25.153-.371l-2.085-.001zm16.3712.3716h-2.351l-.768.64.934.528c.643.364.888 1.166.559 1.827l-2.678 5.373c.191-.004.377-.061.533-.171l4.128-2.889c.256-.18.409-.472.409-.784v-3.759c0-.422-.343-.765-.766-.765m.166-2.2383c-.062.137-.147.264-.268.364l-1.962 1.636h2.623v-.479l-.393-1.521z"/><path d="M40.0344 15.1867c-.044-.168-.196-.287-.37-.287h-.887l.136.576.568 2.198v.479l-.24.192c.08.055.151.115.212.19h.746l.479-.382v-.479l-.644-2.487zm1.336-9.5371l-.43-.513c-.136-.162-.378-.183-.539-.047l-6.454 5.415c.133.016.26.046.376.109.12.058.23.139.319.244.087.104.151.221.191.346.041.124.056.255.049.389l6.441-5.404c.162-.136.183-.377.047-.539m-2.8926 29.0137c-.114 0-.229.04-.321.111-2.056 1.601-3.236 4.002-3.236 6.588 0 .635.08 1.289.239 1.944.002.009 0 .019.002.028l.05.04h.472c-.024-.092-.064-.192-.086-.284-.209-.128-.313-.334-.318-.627-.008-.37-.022-1.033.168-2.103.081-.465.179-.886.3-1.283-.117-.214-.104-.446.038-.703.174-.318.493-.899 1.197-1.738.303-.361.599-.677.901-.961.006-.244.133-.438.384-.59.171-.104.43-.256.787-.432l-.577.01zm-6.3653-1.2168v-2.117l-1.055 2.117zm-3.872-8.3394l-4.157 8.34 6.695-.001 6.066-12.167c.272-.546.069-1.21-.462-1.511l-4.829-2.73c.658.759 1.071 1.737 1.071 2.818 0 2.385-1.941 4.326-4.326 4.326-.245 0-.483-.033-.717-.073l.428.243c.265.15.367.482.231.755m-6.168 15.832c0-.583-.036-1.16-.101-1.73-.012-.109-.035-.216-.05-.325-.056-.405-.127-.806-.215-1.203-.064-.278-.139-.552-.217-.826-.061-.211-.123-.42-.192-.629-.114-.336-.236-.669-.371-.998-.024-.057-.05-.111-.074-.167l-1.273 1.306c.079.089.158.174.238.269.704.839 1.023 1.42 1.176 1.699.16.291.176.527.058.742.122.397.22.819.301 1.283.19 1.07.176 1.733.169 2.052-.006.336-.11.549-.319.678-.024.102-.068.215-.096.319.166-.06.314-.164.404-.318l.097-.162c.075-.127.202-.199.34-.239.077-.626.125-1.211.125-1.751"/><path d="M30.1594 40.9118h-3.528c-1.095 0-1.986-.897-1.986-2s.891-2 1.986-2h3.528c1.096 0 1.986.897 1.986 2s-.89 2-1.986 2zm3.763-6.966l.399-.249h-13.508c-.14 0-.233.149-.169.274 1.072 2.09 1.678 4.458 1.678 6.968 0 .738-.068 1.457-.171 2.166-.013.093.007.186.059.265l.285.426c.07.106.189.17.317.17l11.661.013c.146 0 .278-.082.343-.212l.071-.141c.041-.081.049-.173.029-.261-.155-.643-.245-1.312-.245-2.002 0-2.763 1.308-5.211 3.332-6.785.136-.106.302-.165.474-.165h1.106c.18-.076.369-.153.59-.233.202-.074.383-.116.576-.175.06-.018.123-.04.183-.059h-7.01zm8.1394-.4666l.302-.004c.556 0 1.146.056 1.802.172.084.015.159.033.239.049h3.052v-.256c0-.059-.028-.114-.075-.15l-.93-.725c-.056-.043-.121-.069-.191-.077l-7.89-.929c-.085.019-.163.037-.248.056l-3.33 2.081h6.751c.127-.129.289-.213.518-.217"/></g></svg>