<svg width="56" height="56" viewBox="0 0 56 56" xmlns="http://www.w3.org/2000/svg" xmlns:xlink="http://www.w3.org/1999/xlink"><defs><path id="a" d="M.0282396.0289854h7.4982978v6.5426084H.0282396z"/><path id="c" d="M.0367718.0008363h5.3913304v2.4197646H.0367718z"/></defs><g fill="none" fill-rule="evenodd"><path d="M11.297734 20.7587725l-4.741956-4.297545s-.56326-.5253734-.8888458-.454661c-.325586.070661-.9287578.684515-.9287578.684515s-.6031718.6138026-.6614801.933734c-.0582555.3199828.5049515.8453047.5049515.8453047l4.6135507 4.428309s.5340264-.2688927 1.199207-.9318798c.6509075-.6763262.9033304-1.2077769.9033304-1.2077769" fill="#333"/><path d="M10.2459894 21.803952s-.441304.7627982-1.0508194 1.094472c0 0 .9264318.7936481 1.5253745 1.0936996.115718.05794.253163.0543863.3650749-.0103004.1898326-.1096996.5039471-.3144721.7746608-.6014936.2880528-.2814077.486555-.6031416.589163-.791279.0559824-.1027982.056511-.2259399-.0001058-.3283776-.318925-.5769786-1.151577-1.5019056-1.151577-1.5019056-.313586.6076738-1.051771 1.0451845-1.051771 1.0451845m1.252356 13.6514884L6.353147 39.2875605s-.6125815.4699571-.9296564.3690644c-.3170748-.1009442-.8567048-.7685665-.8567048-.7685665s-.53963-.6675708-.565956-.9915708c-.026326-.3239485.5862556-.7939571.5862556-.7939571l5.0302202-3.9743176s.5050044.3178197 1.1014626 1.0401888c.5808634.7343176.779577 1.2870386.779577 1.2870386" fill="#333"/><path d="M10.5549603 34.3163107s-.3638061-.8007038-.9376387-1.1880515c0 0 1.000652-.7029528 1.6264493-.9453734.1209516-.0468154.2573921-.0303347.3623789.0445494.1780969.1270043.4704846.3603605.7115418.671485.2426432.2878455.4034538.6035021.4913657.8041545.0582026.1327725.0420793.2853734-.0427137.4038798-.3897092.5445837-1.2679824 1.3484807-1.2679824 1.3484807-.252-.6343004-.9434009-1.1391245-.9434009-1.1391245m.6447912 1.6160292s.6918767-.5148154.9471542-.8036395c.3436124.2918112 1.752423 1.306352 1.9383436 1.6223176.2070133.3519142.3700441.7295794.1585903.9613906-.1498149.1416309-.8410044.0156051-1.0837004-.094455-.4839648-.1888583-1.4482467-1.0257167-1.9603877-1.6856137m5.253304 3.1706009s.1123348-.1573906.1453745-.3426438c.0330396-.1852532.1651982-.3140086.3039647-.3783863.1597005-.0741116 1.3129163-.3689098 1.7643172-.4120171.6740088-.0643777 1.5659736.0970815 2.0550661.2639485.436652.1489957 1.5022731.5210472 1.7375154.6202918.2057973.0867811.6215154.2713133.6215154.2713133s-.1571101-.0470214-.3797181-.1114506c-.4108546-.1189185-1.0448458-.2970644-1.3251277-.347897-.2813921-.0511417-.8503084-.130558-1.1365639-.1359142-.2915947-.0055107-.873674.0535107-1.1629956.0899228-.1766696.0222489-.5325462.0847725-.8361409.1401888-.2857269.0521202-.5250926.0980086-.5250926.0980086m26.9541569-18.0995331l4.7420088-4.297545s.563207-.5253734.8888458-.454661c.325533.070661.9287577.684515.9287577.684515s.6031718.6138026.6614802.933734c.0582026.3199828-.5050044.8453047-.5050044.8453047l-4.6135507 4.428309s-.5340264-.2688927-1.199207-.9318798c-.6508547-.6763262-.9033304-1.2077769-.9033304-1.2077769" fill="#333"/><path d="M45.7210714 21.803952s.4413568.7627982 1.0508193 1.094472c0 0-.9263788.7936481-1.5253744 1.0936996-.1156652.05794-.253163.0543863-.365022-.0103004-.1898855-.1096996-.5039472-.3144721-.7746608-.6014936-.2881057-.2814077-.4866079-.6031416-.589163-.791279-.0559824-.1027982-.056511-.2259399.0001057-.3283776.3188723-.5769786 1.1515242-1.5019056 1.1515242-1.5019056.3135859.6076738 1.051771 1.0451845 1.051771 1.0451845" fill="#333"/><g transform="translate(44.440529 33.099227)"><mask id="b" fill="#fff"><use xlink:href="#a"/></mask><path d="M.0282396 2.3562129L5.173385 6.188333s.6126344.4699571.9296564.3690644c.3170749-.1009442.8567049-.7685665.8567049-.7685665s.53963-.6675708.5660088-.9915708c.026326-.3239485-.5863084-.7939571-.5863084-.7939571L1.9092264.0289854S1.404275.3468052.8078167 1.0691743c-.5809163.7343175-.779577 1.2870386-.779577 1.2870386" fill="#333" mask="url(#b)"/></g><path d="M45.4121533 34.3163107s.3637533-.8007038.9375859-1.1880515c0 0-1.0005991-.7029528-1.6264493-.9453734-.1208987-.0468154-.2573392-.0303347-.3623789.0445494-.178044.1270043-.4704317.3603605-.7115418.671485-.2425903.2878455-.4034009.6035021-.4913657.8041545-.0581498.1327725-.0420264.2853734.0427665.4038798.3897093.5445837 1.2679824 1.3484807 1.2679824 1.3484807.2519472-.6343004.9434009-1.1391245.9434009-1.1391245m-.384037-8.3829322c-.08437-.2795536-.2362996-.5097167-.6244758-.6742146-1.4346079-.5097167-1.8059735-1.7594163-1.9409339-2.0225407-.1350661-.2631245-.5738855-.6412532-1.0464846-1.019485-.4725991-.3782318-.8270484-.4932876-1.9578502-.6248755-1.1308546-.1315365-2.8205815-.177116-5.0634714-.312412-1.8566167-.1479657-2.211066.1808755-2.211066.1808755s-1.3333216 1.1675021-1.7046344 1.5950214c-.3713128.4275193-.7595419.5447897-.7595419.5447897l-1.7360881.03703-1.7361938-.03703s-.3881233-.1172704-.759489-.5447897c-.3713128-.4275193-1.7046872-1.5950214-1.7046872-1.5950214s-.3544493-.3288412-2.2110132-.1808756c-2.2429427.1352962-3.9326168.1808756-5.0634714.312412-1.1308017.131588-1.4852511.2466438-1.9577973.6248756-.472652.3782318-.9114714.7563605-1.0464846 1.019485-.1350132.2631244-.506326 1.512824-1.9409868 2.0225408-.3881762.1644978-.5401057.3946609-.6245286.6742145-.0843172.2795537-.28689 3.5353648 0 4.3739743.1299911.4060944.4351189.5531845.5304845.5901116.022097.0086008.0425022.0190558.0622203.0320343.2089692.1373047 1.336652.8838798 1.5508546 1.1373219.2362996.2795536.6919824.8056996.7932688 1.7100773.1181497.6083948 0 .444.2700793.7235536.2700264.2795021 2.6667488 1.5785408 2.6667488 1.5785408s.5401058.1973047 1.0632952.0822489c.5232423-.1151588 2.6160529-.9909528 2.6160529-.9909528s.4895154-.1480172.7426784-.5755365c.253163-.4275193 4.7596123-5.4921373 4.7596123-5.4921373s.3041234-.4161373.7429956-.4245837c.3697797-.0071588 1.0433656-.0083433 1.2463612-.0085494.2028899.0002061.8765287.0013906 1.2463084.0085494.4388194.0084464.7429956.4245837.7429956.4245837s4.5063965 5.064618 4.7595595 5.4921373c.2532158.4275193.7426784.5755365.7426784.5755365s2.0928634.875794 2.6161057.9909528c.5232423.1150558 1.063348-.0822489 1.063348-.0822489s2.3966696-1.2990387 2.6667489-1.5785408c.2699736-.2795536.1518767-.1151588.2699736-.7235536.1012863-.9043777.557022-1.4305237.7933216-1.7100773.2142026-.2534421 1.3419383-1.0000172 1.5508546-1.1373219.0197181-.0129785.0401762-.0234335.0622731-.0320343.0953128-.0369271.4003877-.1840172.5303789-.5901116.2869427-.8386095.0844229-4.0944206 0-4.3739743m-.260807 9.9989614s-.6918238-.5148154-.9471542-.8036395c-.3436124.2918112-1.7523701 1.306352-1.9382908 1.6223176-.2070661.3519142-.370044.7295794-.1585903.9613906.1497621.1416309.8409516.0156051 1.0837004-.094455.4839119-.1888583 1.4481939-1.0257167 1.9603349-1.6856137m-13.69163-18.8208154c-.0264317.1158798-.3436123.1416309-.3436123.1416309h-5.4970573s-.3171806-.0257511-.3436123-.141631c-.0264318-.1158798.0660793-.2124463.0660793-.2124463s.0792951-.0643777.3303964-.0643777h5.3913304c.2511013 0 .3303965.0643777.3303965.0643777s.092511.0965665.0660793.2124464m.4030837-.7274678c-.2709251-.2317597-.8590308-.2381975-.8590308-.2381975h-5.2723877s-.5881057.0064378-.8590308.2381975c-.2709252.2317596-.2444934.386266-.2444934.386266v.4892704s.0198238.3412017.3436123.502146c.3237885.1609442.6475771.1274163.6475771.1274163h5.4970573s.3237885.0335279.6475771-.1274163c.3237885-.1609442.3436123-.502146.3436123-.502146v-.4892704s.0264317-.1545064-.2444934-.386266" fill="#333"/><path d="M45.4234555 30.4076275c-.1349603.5389184-.4247577.6551588-.5532159.6800343-.0504845.0097854-.0982731.0284807-.1414625.0557253-.2943436.1862833-1.332.851279-1.5432423 1.1011674-.2466608.2918627-.7224317.8411846-.8281586 1.7854249-.1233832.635176 0 .4635193-.2819736.7553305-.2819207.2918626-2.7841057 1.6480686-2.7841057 1.6480686s-.5638943.2060086-1.1101321.0858541c-.5462908-.1201545-2.7312952-.9270386-2.7312952-.9270386s-.5110308-.1545064-.775348-.6008755c-.2643172-.4463176-4.969163-5.7338885-4.969163-5.7338885s-.2466608-.2741974-.7048282-.2830042c-.3130044-.0060258-.7628723-.0038112-1.0169339-.0018541-.2542203-.0019571-.7040353-.0041717-1.0170397.0018541-.4581674.0088068-.704881.2830042-.704881.2830042s-4.7048458 5.2875709-4.969163 5.7338885c-.2643172.4463691-.7752952.6008755-.7752952.6008755s-2.1850572.8068841-2.7312951.9270386c-.5462379.1201545-1.1101322-.0858541-1.1101322-.0858541s-2.502185-1.356206-2.7841586-1.6480686c-.2819207-.2918112-.1585903-.1201545-.2819207-.7553305-.1057269-.9442403-.5814978-1.4935622-.8282114-1.7854249-.2111895-.2498884-1.2488987-.9148841-1.5431895-1.1011674-.0431365-.0272446-.090978-.0459399-.1414625-.0557253-.1284053-.0248755-.4183084-.1411159-.5532159-.6800343-.299577-.8755365-.0881233-4.2746781 0-4.5664893.0881234-.2918627.2467137-.5322232.6519648-.7038798 1.4978326-.5321717 1.8854801-1.836927 2.026467-2.111588.1409339-.274661.5991013-.669528 1.0924757-1.0643949.4934273-.3948154.8634714-.5150214 2.0440705-.6523261 1.1805991-.1373563 2.9447577-.1849957 5.2863436-.3262146 1.9383436-.1545065 2.3083877.1888583 2.3083877.1888583s1.3920528 1.2189013 1.7797004 1.665219c.3877005.446369.7929516.5150214.7929516.5150214h2.9150484s.405304-.0686524.7929516-.5150215c.3877004-.4463176 1.7797533-1.6652189 1.7797533-1.6652189s.370044-.3433648 2.3083876-.1888583c2.3416388.1412189 4.1056917.1888583 5.2863436.3262146 1.1805992.1373047 1.5506432.2575107 2.0440177.6523261.4934273.394867.9515418.789734 1.0925286 1.0643949.1409868.274661.5286343 1.5794163 2.0264141 2.111588.405304.1716566.5638943.4120171.6520176.7038798.0880705.2918112.2995242 3.6909528 0 4.5664893m1.8064493-5.613734c-.2026784-.8583347-.6627489-1.3960171-.6627489-1.3960171l-.9319823.6535622s-.5310132.3540773-.8898503.1587811c-.6490572-.3531502-1.0352775-.8218712-1.4053215-1.3883948-.3039648-.4763949.1651982-.9785408.1651982-.9785408l.5000352-.611588s-1.9383436-1.776824-3.61237-2.1030386c-1.7620969-.3948154-7.2797181-.6158626-7.7907489-.6330129-.510978-.0172017-.5660617-.1480686-1.1828194-.4570815-.5762643-.288721-3.1061498-.168412-3.4357004-.1513648-.3296564-.0170472-2.8595419-.1373562-3.4358062.1513648-.6167048.3090129-.6717885.4398798-1.1828194.4570815-.5109779.0171503-6.0285991.2381975-7.7907489.633013-1.6739735.3262145-3.6123172 2.1030385-3.6123172 2.1030385l.4999824.611588s.469163.502146.1651983.9785408c-.370044.5665236-.7562115 1.0352446-1.4052688 1.3883948-.3588898.1952962-.8898502-.158781-.8898502-.158781l-.9320352-.6535623s-.4600705.5376824-.662696 1.3960172c0 0-.6243172 1.6309184-.6243172 3.925545 0 1.0643949.1309427 1.9800515.1309427 1.9800515l.4229075 1.2274507s.1585903 1.536515.220229 1.5021631c.0616917-.034352 1.0437886-.7763949 1.286379-.9270387.3477885-.2159485.7148193-.4117081.9515418-.5331502.1599119-.0819914.3529691-.0735965.503577.0236395.230749.1490987.5764758.3939914.832652.6696309.2754714.2964464.482326.7213391.5947666.9863176.0621674.1465236.0756475.3707125-.027912.49303-.1738678.2052361-.4573744.5390215-.7009691.8205837.0055507.0089099.0177092.0158112.0452511.0303863.224934.1518798 1.2455683.8480858 1.7922819 1.3464721.7224318.9699399.4669428 1.3734077.2863084 1.5407897-.4801586.3647897-1.1438062.14297-1.6724405-.1588326-.6872247-.360515-1.8094626-1.6590386-1.8094626-1.6590386l-.7603876.5517425-.0532864.120515s.8726696 1.2035536 2.062097 2.1284292c.4099559.3187982.5590836.4703691 1.0220616.5493733.723119.1233992 1.5917181.0438799 1.9646167-.0010815.0894978.0016481.3113657-.0350215.5122996-.0724635.2573392-.0731846.5224493-.2129099.5648987-.480103.0859031-.5407726.370044-.6502146.370044-.6502146s.561674-.3733906 2.160793-.5085837c1.4867841-.1609442 4.9757709 1.4291845 4.9757709 1.4291845s.4096916.1995709 1.0638767.4248927c.654185.2253219 1.0969163-.5343347 1.0969163-.5343347s1.1299559-1.5128756 1.2224669-1.6480687c.092511-.1351931.3171806-.1223691.3171806-.1223691h.9904494s.2246696-.012824.3171806.1223691c.092511.1351931 1.222467 1.6480687 1.222467 1.6480687s.4427312.7596566 1.0969163.5343347c.654185-.2253218 1.0638766-.4248927 1.0638766-.4248927s3.4889868-1.5901287 4.9757709-1.4291845c1.599119.1351931 2.160793.5085837 2.160793.5085837s.284141.109442.370044.6502146c.0424494.2671931.3075595.4069184.5648459.480103.2009339.037442.4228017.0741116.5123524.0724635h.0000528c.3728987.0449614 1.2413921.1244807 1.9646168.0010815.462978-.0790042.612-.2305751 1.0220088-.5493733 1.1894273-.9248756 2.0621498-2.1284292 2.0621498-2.1284292l-.0533392-.1204635v-.0000515l-.7603877-.5517425s-1.1222379 1.2985236-1.8094626 1.6590386c-.5286343.3018026-1.192229.5236223-1.6724405.1588326-.1805815-.167382-.4361233-.5708498.2863612-1.5407897.5466608-.4983863 1.5672423-1.1945923 1.7922291-1.3464206.0275419-.0146266.0396476-.0215279.0452511-.0304378-.2435947-.2815622-.5271013-.6153476-.7009163-.8205837-.1036123-.1223175-.0900793-.3465064-.0279119-.49303.1124406-.2649785.3192952-.6898712.5947137-.9863176.2561233-.2756395.6019031-.5205322.8327048-.6696309.1505551-.097236.3436124-.1056309.5035243-.0236395.2367224.1214421.6038061.3172017.9515947.5331502.2425903.1506438 1.2246872.8926867 1.286326.9270387.0616916.0343519.2202819-1.5021631.2202819-1.5021631l.4229075-1.2274507s.130837-.9156566.130837-1.9800515c0-2.2946266-.6242115-3.925545-.6242115-3.925545" fill="#333"/><g transform="translate(25.251101 37.528412)"><mask id="d" fill="#fff"><use xlink:href="#c"/></mask><path d="M4.6681903 1.7869751L3.4325075.0938421S3.3664282.010151 3.2276617.0037133C3.13034-.0008189 2.876014.0009837 2.7324899.0025288c-.1435771-.0015451-.397956-.0033477-.4952776.0011845-.1387665.0064378-.2048458.0901288-.2048458.0901288L.7966837 1.786975s-.2891101.4538884-.7599119.4828326c0 0 .1894626.081528.4449515.1115537.6413393.0796223 2.0503613.0150901 2.2518238.0053047.3846344.0172532 1.6656212.0671588 2.2496564-.0053047.255489-.0300258.4448987-.1115537.4448987-.1115537-.4708018-.0289442-.7599119-.4828326-.7599119-.4828326" fill="#333" mask="url(#d)"/></g><path d="M39.5140053 39.1029408s-.1123348-.1573906-.1453745-.3426438c-.0330396-.1852532-.1651982-.3140086-.3039647-.3783863-.1597005-.0741116-1.3129163-.3689098-1.7643172-.4120171-.6740088-.0643777-1.5659736.0970815-2.0550661.2639485-.4365991.1489957-1.5022202.5210472-1.7374625.6202918-.2057974.0867811-.6215683.2713133-.6215683.2713133s.157163-.0470214.379718-.1114506c.4109075-.1189185 1.0448987-.2970644 1.3251278-.347897.2814449-.0511417.8503612-.130558 1.1365639-.1359142.2916476-.0055107.8737268.0535107 1.1629956.0899228.1766696.0222489.5325462.0847725.8361409.1401888.2857798.0521202.5250925.0980086.5250925.0980086" fill="#333"/></g></svg>