<?xml version="1.0" encoding="UTF-8"?>
<svg width="60px" height="48px" viewBox="0 0 60 48" version="1.1" xmlns="http://www.w3.org/2000/svg" xmlns:xlink="http://www.w3.org/1999/xlink">
    <!-- Generator: Sketch 51.3 (57544) - http://www.bohemiancoding.com/sketch -->
    <title>inspire</title>
    <desc>Created with Sketch.</desc>
    <defs></defs>
    <g id="inspire" stroke="none" stroke-width="1" fill="none" fill-rule="evenodd">
        <path d="M27.6867115,26.8229972 C27.6867115,26.8229972 27.2225593,25.9416591 27.2225593,24.0191643 L27.2225593,19.8134151 C27.2225593,18.5227173 28.4692722,17.4768877 30.0074729,17.4768877 C31.5456735,17.4768877 32.7923865,18.5227173 32.7923865,19.8134151 L32.7923865,24.0191643 C32.7923865,25.9416591 32.3282342,26.8229972 32.3282342,26.8229972 C32.3286984,27.3562148 32.2874044,27.7054768 32.232342,27.9620224 L33.3621878,28.61879 C33.4991755,28.5180802 33.6682969,28.4585664 33.8512339,28.4585664 C34.3076116,28.4585664 34.6780051,28.8289599 34.6780051,29.2853376 C34.6780051,29.7417153 34.3076116,30.1121089 33.8512339,30.1121089 C33.7271833,30.1121089 33.6094855,30.0847428 33.5038523,30.0357224 L31.3999297,30.0357224 L31.3999297,31.5895131 C31.3999297,31.7960621 31.2337632,31.9633575 31.0286079,31.9633575 L28.9863379,31.9633575 C28.7811826,31.9633575 28.6150161,31.7960621 28.6150161,31.5895131 L28.6150161,30.0357224 L26.7432161,30.0357224 C26.6375828,30.0847428 26.5198851,30.1121089 26.3958345,30.1121089 C25.9394567,30.1121089 25.5690632,29.7417153 25.5690632,29.2853376 C25.5690632,28.8289599 25.9394567,28.4585664 26.3958345,28.4585664 C26.5239735,28.4585664 26.645334,28.487766 26.7536208,28.53987 L27.7791644,27.9437322 C27.7262909,27.6889157 27.6871756,27.3436508 27.6871756,26.8229972 Z M32.0960933,28.423347 C32.089681,28.4413127 32.0833481,28.4590068 32.0771278,28.4765397 L30.007937,28.4765397 L27.9378179,28.4765397 C27.9296666,28.4535637 27.921327,28.430311 27.9128734,28.4065331 L27.421404,28.6922191 L32.5586374,28.6922191 L32.0960933,28.423347 Z M30.8777584,33.5048674 C31.9896736,33.8727518 32.7923865,34.9264527 32.7923865,36.1691068 C32.7923865,37.7177572 31.5456735,38.9729397 30.0074729,38.9729397 C28.7947774,38.9729397 27.7632567,38.1927783 27.380993,37.1037178 L26.5611422,37.1037178 C26.4130197,37.1037178 26.2942547,37.0196028 26.2942547,36.9167956 L26.2942547,35.421418 C26.2942547,35.3186108 26.4130197,35.2344958 26.5611422,35.2344958 L27.380993,35.2344958 C27.7134066,34.2874569 28.5367827,33.5740048 29.5433206,33.4040313 L29.5433206,32.1970102 L30.8777584,32.1970102 L30.8777584,33.5048674 Z M11.3747298,18.1778459 L13.2081312,18.1778459 L13.2081312,26.9164583 C13.2081312,27.1230073 13.0419647,27.2903027 12.8368094,27.2903027 L12.6158729,27.2903027 C12.4246422,27.2903027 12.2649738,27.1445034 12.2464077,26.9538428 L11.3747298,18.1778459 Z M10.7973243,12.3365274 L13.7678989,12.3365274 C13.9730542,12.3365274 14.1392207,12.5038228 14.1392207,12.7103718 L14.1392207,17.5703488 C14.1392207,17.7768978 13.9730542,17.9441931 13.7678989,17.9441931 L10.7973243,17.9441931 C10.592169,17.9441931 10.4260025,17.7768978 10.4260025,17.5703488 L10.4260025,12.7103718 C10.4260025,12.5038228 10.592169,12.3365274 10.7973243,12.3365274 Z M12.3547409,10 C12.867165,10 13.2830454,10.4177711 13.2830454,10.934611 L13.2830454,11.8692219 L11.4264363,11.8692219 L11.4264363,10.934611 C11.4264363,10.4177711 11.8423168,10 12.3547409,10 Z M13.5151216,12.2781142 L13.5151216,10.934611 L20.3381599,10.934611 C20.5433152,10.934611 20.7094818,11.175098 20.7094818,11.4720123 L20.7094818,11.7407129 C20.7094818,12.0376271 20.5433152,12.2781142 20.3381599,12.2781142 L13.5151216,12.2781142 Z M4.37132182,12.2781142 C4.16616651,12.2781142 4,12.0376271 4,11.7407129 L4,11.4720123 C4,11.175098 4.16616651,10.934611 4.37132182,10.934611 L11.1943602,10.934611 L11.1943602,12.2781142 L4.37132182,12.2781142 Z M26.9007161,20.379322 L26.9007161,22.5382733 L14.3686047,15.793186 L14.3686047,13.6342347 L26.9007161,20.379322 Z M26.9220671,24.7093746 L14.3686047,17.9512027 L14.3686047,16.8717271 L26.9007161,23.617749 L26.9007161,24.0196317 C26.9007161,24.266369 26.9090708,24.4953487 26.9220671,24.7093746 Z M47.6452591,10 C48.1576832,10 48.5735637,10.4177711 48.5735637,10.934611 L48.5735637,11.8692219 L46.7169546,11.8692219 L46.7169546,10.934611 C46.7169546,10.4177711 47.132835,10 47.6452591,10 Z M46.4848785,12.2781142 L39.66184,12.2781142 C39.4566848,12.2781142 39.2905182,12.0376271 39.2905182,11.7407129 L39.2905182,11.4720123 C39.2905182,11.175098 39.4566848,10.934611 39.66184,10.934611 L46.4848785,10.934611 L46.4848785,12.2781142 Z M55.6286782,12.2781142 L48.8056398,12.2781142 L48.8056398,10.934611 L55.6286782,10.934611 C55.8338335,10.934611 56,11.175098 56,11.4720123 L56,11.7407129 C56,12.0376271 55.8338335,12.2781142 55.6286782,12.2781142 Z M48.5504489,18.1778459 L47.6787709,26.9538428 C47.6602048,27.1445034 47.4996082,27.2903027 47.3093058,27.2903027 L47.0883693,27.2903027 C46.8832139,27.2903027 46.7170475,27.1230073 46.7170475,26.9164583 L46.7170475,18.1778459 L48.5504489,18.1778459 Z M46.159879,12.3365274 L49.1304536,12.3365274 C49.3356089,12.3365274 49.5017754,12.5038228 49.5017754,12.7103718 L49.5017754,17.5703488 C49.5017754,17.7768978 49.3356089,17.9441931 49.1304536,17.9441931 L46.159879,17.9441931 C45.9547238,17.9441931 45.7885572,17.7768978 45.7885572,17.5703488 L45.7885572,12.7103718 C45.7885572,12.5038228 45.9547238,12.3365274 46.159879,12.3365274 Z M33.0244626,20.379322 L45.5565739,13.6342347 L45.5565739,15.793186 L33.0244626,22.5382733 L33.0244626,20.379322 Z M33.0031116,24.7093746 C33.0161078,24.4953487 33.0244626,24.266369 33.0244626,24.0196317 L33.0244626,23.617749 L45.5565739,16.8717271 L45.5565739,17.9512027 L33.0031116,24.7093746 Z M30.0074729,38.0383287 C31.0323211,38.0383287 31.864082,37.2009173 31.864082,36.1691068 C31.864082,35.1372963 31.0323211,34.2998849 30.0074729,34.2998849 C28.9826246,34.2998849 28.1508638,35.1372963 28.1508638,36.1691068 C28.1508638,37.2009173 28.9826246,38.0383287 30.0074729,38.0383287 Z M30.0074729,34.7671904 C30.7770373,34.7671904 31.3999297,35.3952489 31.3999297,36.1691068 C31.3999297,36.9429647 30.7770373,37.5710232 30.0074729,37.5710232 C29.2379083,37.5710232 28.6150161,36.9429647 28.6150161,36.1691068 C28.6150161,35.3952489 29.2379083,34.7671904 30.0074729,34.7671904 Z" id="Mask" fill="#3B3E40" fill-rule="nonzero"></path>
    </g>
</svg>