<?xml version="1.0" encoding="UTF-8"?>
<svg width="16px" height="13px" viewBox="0 0 16 13" version="1.1" xmlns="http://www.w3.org/2000/svg" xmlns:xlink="http://www.w3.org/1999/xlink">
    <!-- Generator: Sketch 50.2 (55047) - http://www.bohemiancoding.com/sketch -->
    <title>icon</title>
    <desc>Created with Sketch.</desc>
    <defs>
        <path d="M12.71875,5.55 C12.95625,4.8 12.3,4.0875 11.55,4.246875 C10.8625,4.396875 10.65,3.36875 11.328125,3.221875 C12.89375,2.88125 14.2125,4.38125 13.71875,5.871875 C13.50625,6.534375 12.50625,6.209375 12.71875,5.55 Z M6.7125,13.959375 C3.390625,13.959375 0,12.353125 0,9.7 C0,8.315625 0.875,6.71875 2.384375,5.209375 C5.5,2.09375 8.734375,2.05625 7.809375,5.03125 C7.684375,5.440625 8.19375,5.209375 8.19375,5.21875 C10.678125,4.16875 12.584375,4.69375 11.75625,6.825 C11.640625,7.11875 11.790625,7.165625 12.015625,7.234375 C16.25625,8.55625 13.103125,13.959375 6.7125,13.959375 Z M11.203125,9.3875 C11.034375,7.646875 8.75,6.45 6.096875,6.709375 C3.446875,6.978125 1.446875,8.59375 1.615625,10.334375 C1.784375,12.075 4.06875,13.271875 6.721875,13.0125 C9.371875,12.74375 11.371875,11.128125 11.203125,9.3875 Z M10.871875,1.096875 C10.0625,1.271875 10.346875,2.4625 11.13125,2.29375 C13.390625,1.81875 15.34375,3.94375 14.621875,6.16875 C14.390625,6.925 15.53125,7.325 15.790625,6.54375 C16.7875,3.425 14.06875,0.421875 10.871875,1.096875 Z M8.41875,10.815625 C7.884375,12.028125 6.33125,12.690625 5.009375,12.2625 C3.734375,11.853125 3.196875,10.59375 3.75,9.459375 C4.303125,8.353125 5.721875,7.728125 6.98125,8.05 C8.29375,8.3875 8.953125,9.61875 8.41875,10.815625 Z M5.721875,9.878125 C5.31875,9.709375 4.784375,9.8875 4.534375,10.28125 C4.275,10.684375 4.4,11.15625 4.803125,11.34375 C5.2125,11.53125 5.765625,11.353125 6.025,10.940625 C6.275,10.53125 6.140625,10.05625 5.721875,9.878125 Z M6.740625,9.459375 C6.58125,9.40625 6.384375,9.478125 6.29375,9.628125 C6.203125,9.7875 6.25,9.959375 6.409375,10.03125 C6.56875,10.09375 6.775,10.021875 6.865625,9.8625 C6.953125,9.7 6.9,9.521875 6.740625,9.459375 Z" id="path-1"></path>
    </defs>
    <g id="Symbols" stroke="none" stroke-width="1" fill="none" fill-rule="evenodd">
        <g id="base/footer/en" transform="translate(-1300.000000, -373.000000)">
            <g id="about" transform="translate(360.000000, 368.000000)">
                <g id="footer-social" transform="translate(878.000000, 0.000000)">
                    <g id="base/footer/icon" transform="translate(58.000000, 0.000000)">
                        <g id="weibo" transform="translate(4.000000, 4.000000)">
                            <mask id="mask-2" fill="white">
                                <use xlink:href="#path-1"></use>
                            </mask>
                            <g fill-rule="nonzero"></g>
                            <g id="grey/7(dark-grey-&amp;-text-secondary)" mask="url(#mask-2)" fill="#6C7073" fill-rule="evenodd">
                                <rect id="base" x="0" y="0" width="16" height="16"></rect>
                            </g>
                        </g>
                    </g>
                </g>
            </g>
        </g>
    </g>
</svg>