<?xml version="1.0" encoding="UTF-8"?>
<svg width="16px" height="14px" viewBox="0 0 16 14" version="1.1" xmlns="http://www.w3.org/2000/svg" xmlns:xlink="http://www.w3.org/1999/xlink">
    <!-- Generator: Sketch 50.2 (55047) - http://www.bohemiancoding.com/sketch -->
    <title>icon</title>
    <desc>Created with Sketch.</desc>
    <defs>
        <path d="M10.7,5.41015625 C10.8777778,5.41015625 11.05,5.41894531 11.2222222,5.44238281 C10.7611111,3.14550781 8.425,1.4375 5.76944444,1.4375 C2.79166667,1.4375 0.361111111,3.5703125 0.361111111,6.28320312 C0.361111111,7.84765625 1.175,9.13964844 2.525,10.1386719 L1.98888889,11.8554688 L3.87777778,10.8564453 C4.55555556,10.9970703 5.09444444,11.140625 5.77222222,11.140625 C5.94444444,11.140625 6.10833333,11.1318359 6.28055556,11.1171875 C6.16944444,10.7392578 6.10833333,10.3378906 6.10833333,9.921875 C6.10555556,7.43457031 8.13333333,5.41015625 10.7,5.41015625 Z M7.79722222,3.86035156 C8.2,3.86035156 8.46944444,4.14453125 8.46944444,4.57519531 C8.46944444,5 8.2,5.28417969 7.79722222,5.28417969 C7.38611111,5.28417969 6.98333333,5 6.98333333,4.57519531 C6.98611111,4.14453125 7.38888889,3.86035156 7.79722222,3.86035156 Z M4.00833333,5.28417969 C3.60555556,5.28417969 3.19444444,5 3.19444444,4.57519531 C3.19444444,4.14160156 3.60555556,3.86035156 4.00833333,3.86035156 C4.41944444,3.86035156 4.68611111,4.14453125 4.68611111,4.57519531 C4.68611111,5.00292969 4.41944444,5.28417969 4.00833333,5.28417969 Z M15.6388889,9.85742188 C15.6388889,7.57519531 13.475,5.71777344 11.0444444,5.71777344 C8.46944444,5.71777344 6.45,7.57519531 6.45,9.85742188 C6.45,12.1396484 8.47222222,13.9970703 11.0444444,13.9970703 C11.5805556,13.9970703 12.125,13.8476562 12.6722222,13.7070312 L14.1555556,14.5654297 L13.7444444,13.1416016 C14.8333333,12.2802734 15.6388889,11.140625 15.6388889,9.85742188 Z M9.55277778,9.13964844 C9.28333333,9.13964844 9.01666667,8.85546875 9.01666667,8.56542969 C9.01666667,8.28125 9.28611111,8 9.55277778,8 C9.96388889,8 10.2305556,8.28417969 10.2305556,8.56542969 C10.2305556,8.85839844 9.96111111,9.13964844 9.55277778,9.13964844 Z M12.5277778,9.13964844 C12.2583333,9.13964844 11.9916667,8.85546875 11.9916667,8.56542969 C11.9916667,8.28125 12.2611111,8 12.5277778,8 C12.9305556,8 13.2055556,8.28417969 13.2055556,8.56542969 C13.2083333,8.85839844 12.9305556,9.13964844 12.5277778,9.13964844 Z" id="path-1"></path>
    </defs>
    <g id="Symbols" stroke="none" stroke-width="1" fill="none" fill-rule="evenodd">
        <g id="base/footer/en" transform="translate(-1340.000000, -373.000000)">
            <g id="about" transform="translate(360.000000, 368.000000)">
                <g id="footer-social" transform="translate(878.000000, 0.000000)">
                    <g id="base/footer/icon" transform="translate(98.000000, 0.000000)">
                        <g id="weixin" transform="translate(4.000000, 4.000000)">
                            <mask id="mask-2" fill="white">
                                <use xlink:href="#path-1"></use>
                            </mask>
                            <g fill-rule="nonzero"></g>
                            <g id="grey/7(dark-grey-&amp;-text-secondary)" mask="url(#mask-2)" fill="#6C7073" fill-rule="evenodd">
                                <rect id="base" x="0" y="0" width="16" height="16"></rect>
                            </g>
                        </g>
                    </g>
                </g>
            </g>
        </g>
    </g>
</svg>