<?xml version="1.0" encoding="UTF-8"?>
<svg width="42px" height="24px" viewBox="0 0 42 24" version="1.1" xmlns="http://www.w3.org/2000/svg" xmlns:xlink="http://www.w3.org/1999/xlink">
    <!-- Generator: Sketch 50.2 (55047) - http://www.bohemiancoding.com/sketch -->
    <title>base/footer/en</title>
    <desc>Created with Sketch.</desc>
    <defs>
        <path d="M1.83752508,3.06654575 C1.3795786,3.23543058 1.06396274,3.5955058 1.01510298,4.01779375 C0.957290649,4.52459999 0.979444455,4.57345976 2.72215993,7.54313189 C3.60679477,9.06339888 4.33589776,10.3304145 4.33589776,10.3615209 C4.33589776,10.3882268 4.05578868,11.0372119 3.71346686,11.8018217 C3.36674463,12.5664315 3.05552918,13.3132879 3.01547025,13.4600189 C2.83323243,14.1712167 3.15340045,14.7268828 3.86459831,14.9358265 C4.41146348,15.1003109 4.78489167,14.9535799 5.14041474,14.4379728 C5.31385172,14.1889701 9.52368177,4.87132223 9.60820005,4.55570636 C9.68816619,4.24904307 9.68816619,4.09335947 9.6036479,3.81325039 C9.51928135,3.5287409 9.24812484,3.27093737 8.90580302,3.14211147 C8.12784027,2.85304983 7.66549337,3.03543938 7.31877114,3.7733432 C7.22545203,3.9733344 6.80301233,4.90698075 6.38072438,5.85382834 C5.95403601,6.80507634 5.59836121,7.57863868 5.58500823,7.57863868 C5.56725484,7.57423826 5.04709562,6.68960342 4.42481646,5.60922604 C3.52227649,4.04890012 3.24231915,3.5955058 3.04657662,3.399915 C2.6865014,3.03088723 2.25541262,2.91086216 1.83752508,3.06654575 Z M12.5599671,3.12875849 C11.5419542,3.35105524 10.6350138,3.96893399 10.0260876,4.84916842 C8.79913093,6.62283852 9.0080747,9.21908247 10.4972353,10.7082431 C11.2618451,11.4639003 12.1865389,11.8195751 13.3823892,11.8151747 C14.6270992,11.8062221 15.5649942,11.4283935 16.3252036,10.6326774 C16.8808696,10.045905 17.232144,9.30784943 17.3832754,8.38330739 C17.4855471,7.77422947 17.4588412,6.78292253 17.3210627,6.28506886 C16.9075756,4.75569757 15.8317503,3.6176596 14.4048025,3.1999238 C13.8579373,3.03983979 13.0978797,3.00873342 12.5599671,3.12875849 Z M14.0136209,5.26705596 C14.5425809,5.51150652 14.982774,6.1026793 15.1604597,6.80067592 C15.3027903,7.36074234 15.2094712,8.28543612 14.969421,8.76553641 C14.3559427,9.9613867 13.1156331,10.2682017 12.2309982,9.44122748 C11.2351391,8.51213329 11.1862794,6.67625044 12.1287265,5.67599094 C12.6843925,5.09361897 13.3423302,4.9514401 14.0136209,5.26705596 Z M18.3923358,3.40431542 C18.1745912,3.47108031 17.9167876,3.75103765 17.8233168,4.02674632 C17.7433506,4.24904307 17.7389502,4.44008171 17.7389502,6.73406277 C17.7389502,9.15231758 17.7389502,9.21012991 17.8410702,9.57915768 C17.8944821,9.78794972 18.0011542,10.0858122 18.0767199,10.2369436 C18.2457565,10.588218 18.7035512,11.0816713 19.0502734,11.290615 C19.997121,11.8640344 21.5264923,12.0285189 22.842216,11.6951496 C23.9848061,11.4016876 24.7005561,10.7303969 25.0161719,9.64577084 C25.1182919,9.29464819 25.1182919,9.27234265 25.1182919,6.73406277 C25.1182919,4.23113793 25.1182919,4.17347734 25.0249728,3.97773481 C24.8915947,3.68882491 24.6738501,3.49763453 24.3893406,3.41326798 C23.891487,3.27093737 23.3623752,3.46212775 23.1534314,3.8622619 C22.9978995,4.16452478 22.988947,4.27559728 22.9667932,6.66729787 L22.9400872,9.06779929 L22.8244626,9.31240158 C22.6599781,9.66792464 22.4643873,9.86806759 22.1266177,10.032552 C21.8554612,10.1659301 21.7930967,10.179283 21.4286211,10.1747309 C21.0862992,10.1747309 20.9885797,10.1569775 20.7485296,10.0503054 C20.4239611,9.89917396 20.2016644,9.6724768 20.0327796,9.316802 L19.9171549,9.06779929 L19.8950011,6.62283852 L19.8726956,4.17787776 L19.7393175,3.91112166 C19.5437267,3.51994008 19.3259821,3.38216161 18.8813886,3.36880863 C18.6945986,3.36440822 18.4724536,3.37760946 18.3923358,3.40431542 Z M33.7915068,3.42206881 C33.5648097,3.50218668 33.3913727,3.67547193 33.2669472,3.9511806 L33.1646755,4.17787776 L33.1646755,6.73406277 C33.1646755,9.27234265 33.1646755,9.29464819 33.2669472,9.64577084 C33.6892352,11.0994247 34.8850854,11.8462811 36.809887,11.8506815 C37.7256282,11.8552336 38.5214961,11.686197 39.1082685,11.3705812 C39.2370944,11.303968 39.4860971,11.1083772 39.6595341,10.9438928 C40.0373627,10.588218 40.2818132,10.1569775 40.4418972,9.57915768 C40.5441689,9.20572949 40.5441689,9.17462312 40.5441689,6.71175722 L40.5441689,4.22233711 L40.4418972,4.00004036 C40.2684602,3.62221175 40.0106567,3.42662096 39.6150747,3.37320905 C39.2815537,3.32434928 38.9792908,3.42662096 38.7436411,3.66211895 C38.4102719,4.00004036 38.4192244,3.92447464 38.3925185,6.64514407 L38.3658125,9.06779929 L38.2501878,9.316802 C38.0990564,9.63681827 37.8234995,9.91252694 37.5034832,10.059258 C37.2899873,10.1613779 37.1966682,10.179283 36.8321925,10.179283 C36.4675652,10.179283 36.3742461,10.1613779 36.1653023,10.0636584 C35.8540868,9.91692735 35.6052359,9.66792464 35.4585048,9.35686093 L35.3428802,9.11225864 L35.3207264,6.68960342 C35.2940204,4.07560608 35.2940204,4.09791162 35.0495699,3.72888385 C34.8938863,3.5065871 34.5694696,3.35545565 34.2359486,3.35545565 C34.0848171,3.35985607 33.8892264,3.38656203 33.7915068,3.42206881 Z M26.2030697,3.45772733 C25.940714,3.55544686 25.7762296,3.69777747 25.6695575,3.92447464 C25.5672858,4.12901799 25.5628854,4.18227817 25.5273786,5.77826262 C25.5096252,6.68065085 25.5006726,8.24537719 25.5050731,9.25018884 L25.518426,11.0727187 L25.6518041,11.3350744 C25.7630283,11.552819 25.8252411,11.6151835 26.0074789,11.7085026 C26.1986693,11.8107743 26.2830358,11.8239755 26.6742174,11.8239755 C27.0476456,11.8239755 27.1499173,11.8062221 27.3056009,11.726256 C27.7589952,11.4818054 27.8078549,11.2862146 27.8078549,9.68127762 C27.8078549,8.98783316 27.8168075,8.42321459 27.8301605,8.42321459 C27.8479139,8.42321459 28.6081232,9.11681079 29.5238645,9.96578712 C30.4529587,10.8282682 31.2797812,11.5617716 31.3954058,11.6239843 C31.6709628,11.7707153 32.1289092,11.8018217 32.4178191,11.6907492 C32.8889669,11.5083596 33.0801572,11.183943 33.0446504,10.614924 C33.0089919,10.032552 32.9601322,9.97033927 31.5909966,8.70772408 C30.9330589,8.0987979 30.3907459,7.57863868 30.3907459,7.55633313 C30.3861938,7.52977891 30.732916,7.18745709 31.1553557,6.79172336 C32.5023374,5.52485949 32.5422446,5.48040014 32.6979282,5.18253767 C32.7778943,5.02245367 32.8490597,4.80015692 32.8624126,4.66693061 C32.9112724,4.19563115 32.6401159,3.72888385 32.1821694,3.5065871 C31.9732256,3.40431542 31.8976599,3.39096244 31.6620102,3.40871583 C31.5108787,3.42206881 31.2931341,3.47548073 31.1864621,3.52889264 C31.0441314,3.59990621 30.5239722,4.09791162 29.3992872,5.23594959 L27.8122554,6.84513527 L27.8078549,5.635932 C27.8078549,4.9514401 27.7857011,4.3290092 27.7589952,4.20458372 C27.6967824,3.91552207 27.5011916,3.64891771 27.2655419,3.52889264 C27.0254918,3.40431542 26.4475202,3.36880863 26.2030697,3.45772733 Z" id="path-1"></path>
    </defs>
    <g id="Symbols" stroke="none" stroke-width="1" fill="none" fill-rule="evenodd">
        <g id="base/footer/en" transform="translate(-1238.000000, -368.000000)">
            <g id="about" transform="translate(360.000000, 368.000000)">
                <g id="transparent">
                    <rect id="base" x="0" y="0" width="1200" height="24"></rect>
                </g>
                <g id="footer-social" transform="translate(878.000000, 0.000000)">
                    <g id="youku" transform="translate(0.000000, 4.000000)">
                        <mask id="mask-2" fill="white">
                            <use xlink:href="#path-1"></use>
                        </mask>
                        <use id="Shape" fill="#000000" fill-rule="nonzero" xlink:href="#path-1"></use>
                        <g id="grey/7(dark-grey-&amp;-text-secondary)" mask="url(#mask-2)" fill="#6C7073" fill-rule="evenodd">
                            <rect id="base" x="0" y="0" width="42" height="16"></rect>
                        </g>
                    </g>
                </g>
            </g>
        </g>
    </g>
</svg>